<svg width="85" height="24" viewBox="0 0 85 24" fill="none" xmlns="http://www.w3.org/2000/svg">
<path d="M8.52415 23.2983C7.10369 23.2983 5.83239 23.032 4.71023 22.4993C3.58807 21.9595 2.69673 21.2209 2.03622 20.2834C1.38281 19.3459 1.0348 18.2734 0.992188 17.0661H4.82742C4.89844 17.9609 5.28551 18.6925 5.98864 19.2607C6.69176 19.8217 7.53693 20.1023 8.52415 20.1023C9.2983 20.1023 9.98722 19.9247 10.5909 19.5696C11.1946 19.2145 11.6705 18.7209 12.0185 18.0888C12.3665 17.4567 12.5369 16.7358 12.5298 15.9261C12.5369 15.1023 12.3629 14.3707 12.0078 13.7315C11.6527 13.0923 11.1662 12.5916 10.5483 12.2294C9.9304 11.8601 9.22017 11.6754 8.41761 11.6754C7.7642 11.6683 7.12145 11.7891 6.48935 12.0376C5.85724 12.2862 5.35653 12.6129 4.98722 13.0178L1.41832 12.4318L2.55824 1.18182H15.2145V4.48438H5.82884L5.20028 10.2692H5.32812C5.73295 9.79332 6.30469 9.39915 7.04332 9.08665C7.78196 8.76705 8.59162 8.60724 9.4723 8.60724C10.7933 8.60724 11.9723 8.91974 13.0092 9.54474C14.0462 10.1626 14.8629 11.0149 15.4595 12.1016C16.0561 13.1882 16.3544 14.4311 16.3544 15.8303C16.3544 17.272 16.0206 18.5575 15.353 19.6868C14.6925 20.8089 13.7727 21.6932 12.5938 22.3395C11.4219 22.9787 10.0653 23.2983 8.52415 23.2983ZM27.9879 23.4155C26.2337 23.4155 24.728 22.9716 23.4709 22.0838C22.2209 21.1889 21.2585 19.8999 20.5838 18.2166C19.9162 16.5263 19.5824 14.4915 19.5824 12.1122C19.5895 9.73295 19.9268 7.70881 20.5945 6.03977C21.2692 4.36364 22.2315 3.08523 23.4815 2.20455C24.7386 1.32386 26.2408 0.883522 27.9879 0.883522C29.7351 0.883522 31.2372 1.32386 32.4943 2.20455C33.7514 3.08523 34.7138 4.36364 35.3814 6.03977C36.0561 7.71591 36.3935 9.74006 36.3935 12.1122C36.3935 14.4986 36.0561 16.5369 35.3814 18.2273C34.7138 19.9105 33.7514 21.196 32.4943 22.0838C31.2443 22.9716 29.7422 23.4155 27.9879 23.4155ZM27.9879 20.081C29.3516 20.081 30.4276 19.4098 31.2159 18.0675C32.0114 16.718 32.4091 14.733 32.4091 12.1122C32.4091 10.3793 32.228 8.9233 31.8658 7.74432C31.5036 6.56534 30.9922 5.67756 30.3317 5.08097C29.6712 4.47727 28.8899 4.17543 27.9879 4.17543C26.6314 4.17543 25.5589 4.85014 24.7706 6.19957C23.9822 7.5419 23.5845 9.51278 23.5774 12.1122C23.5703 13.8523 23.7443 15.3153 24.0994 16.5014C24.4616 17.6875 24.973 18.5824 25.6335 19.1861C26.294 19.7827 27.0788 20.081 27.9879 20.081ZM42.3514 20.3793C41.7051 20.3793 41.1511 20.152 40.6895 19.6974C40.2278 19.2358 40.0005 18.6818 40.0076 18.0355C40.0005 17.3963 40.2278 16.8494 40.6895 16.3949C41.1511 15.9403 41.7051 15.7131 42.3514 15.7131C42.9764 15.7131 43.5197 15.9403 43.9814 16.3949C44.4501 16.8494 44.688 17.3963 44.6951 18.0355C44.688 18.4687 44.5744 18.8629 44.3542 19.218C44.1412 19.5732 43.8571 19.8572 43.502 20.0703C43.1539 20.2763 42.7704 20.3793 42.3514 20.3793ZM42.3514 9.56605C41.7051 9.56605 41.1511 9.33878 40.6895 8.88423C40.2278 8.42258 40.0005 7.86861 40.0076 7.2223C40.0005 6.5831 40.2278 6.03622 40.6895 5.58168C41.1511 5.12003 41.7051 4.8892 42.3514 4.8892C42.9764 4.8892 43.5197 5.12003 43.9814 5.58168C44.4501 6.03622 44.688 6.5831 44.6951 7.2223C44.688 7.64844 44.5744 8.03906 44.3542 8.39418C44.1412 8.74929 43.8571 9.03338 43.502 9.24645C43.1539 9.45952 42.7704 9.56605 42.3514 9.56605ZM56.2195 23.2983C54.799 23.2983 53.5277 23.032 52.4055 22.4993C51.2834 21.9595 50.392 21.2209 49.7315 20.2834C49.0781 19.3459 48.7301 18.2734 48.6875 17.0661H52.5227C52.5938 17.9609 52.9808 18.6925 53.6839 19.2607C54.3871 19.8217 55.2322 20.1023 56.2195 20.1023C56.9936 20.1023 57.6825 19.9247 58.2862 19.5696C58.8899 19.2145 59.3658 18.7209 59.7138 18.0888C60.0618 17.4567 60.2322 16.7358 60.2251 15.9261C60.2322 15.1023 60.0582 14.3707 59.7031 13.7315C59.348 13.0923 58.8615 12.5916 58.2436 12.2294C57.6257 11.8601 56.9155 11.6754 56.1129 11.6754C55.4595 11.6683 54.8168 11.7891 54.1847 12.0376C53.5526 12.2862 53.0518 12.6129 52.6825 13.0178L49.1136 12.4318L50.2536 1.18182H62.9098V4.48438H53.5241L52.8956 10.2692H53.0234C53.4283 9.79332 54 9.39915 54.7386 9.08665C55.4773 8.76705 56.2869 8.60724 57.1676 8.60724C58.4886 8.60724 59.6676 8.91974 60.7045 9.54474C61.7415 10.1626 62.5582 11.0149 63.1548 12.1016C63.7514 13.1882 64.0497 14.4311 64.0497 15.8303C64.0497 17.272 63.7159 18.5575 63.0483 19.6868C62.3878 20.8089 61.468 21.6932 60.2891 22.3395C59.1172 22.9787 57.7607 23.2983 56.2195 23.2983ZM75.6832 23.4155C73.929 23.4155 72.4233 22.9716 71.1662 22.0838C69.9162 21.1889 68.9538 19.8999 68.2791 18.2166C67.6115 16.5263 67.2777 14.4915 67.2777 12.1122C67.2848 9.73295 67.6222 7.70881 68.2898 6.03977C68.9645 4.36364 69.9268 3.08523 71.1768 2.20455C72.4339 1.32386 73.9361 0.883522 75.6832 0.883522C77.4304 0.883522 78.9325 1.32386 80.1896 2.20455C81.4467 3.08523 82.4091 4.36364 83.0767 6.03977C83.7514 7.71591 84.0888 9.74006 84.0888 12.1122C84.0888 14.4986 83.7514 16.5369 83.0767 18.2273C82.4091 19.9105 81.4467 21.196 80.1896 22.0838C78.9396 22.9716 77.4375 23.4155 75.6832 23.4155ZM75.6832 20.081C77.0469 20.081 78.1229 19.4098 78.9112 18.0675C79.7067 16.718 80.1044 14.733 80.1044 12.1122C80.1044 10.3793 79.9233 8.9233 79.5611 7.74432C79.1989 6.56534 78.6875 5.67756 78.027 5.08097C77.3665 4.47727 76.5852 4.17543 75.6832 4.17543C74.3267 4.17543 73.2543 4.85014 72.4659 6.19957C71.6776 7.5419 71.2798 9.51278 71.2727 12.1122C71.2656 13.8523 71.4396 15.3153 71.7947 16.5014C72.157 17.6875 72.6683 18.5824 73.3288 19.1861C73.9893 19.7827 74.7741 20.081 75.6832 20.081Z" fill="white"/>
</svg>
