<svg width="216" height="216" viewBox="0 0 216 216" fill="none" xmlns="http://www.w3.org/2000/svg">
<mask id="mask0_8_8367" style="mask-type:alpha" maskUnits="userSpaceOnUse" x="2" y="2" width="212" height="212">
<circle cx="108" cy="108" r="105.231" fill="#D9D9D9"/>
</mask>
<g mask="url(#mask0_8_8367)">
<rect x="-8.30762" width="227.077" height="227.077" fill="white"/>
<g clip-path="url(#clip0_8_8367)">
<path d="M177.495 91.5547C177.212 92.469 176.92 93.2827 176.61 94.1238C176.23 95.2392 175.832 96.318 175.416 97.3786C175.062 98.2928 174.682 99.2071 174.319 100.121C173.956 101.036 173.558 101.867 173.178 102.681C172.798 103.495 172.417 104.29 172.037 105.049C171.656 105.808 171.267 106.521 170.887 107.198C170.312 108.212 169.746 109.136 169.179 109.94C169.103 110.061 169.021 110.177 168.932 110.288C168.691 110.595 168.421 110.876 168.127 111.129C166.358 112.665 163.783 113.012 160.776 112.509C158.775 112.127 156.823 111.514 154.955 110.681C149.783 108.318 144.961 105.209 140.633 101.447C138.526 99.6699 136.529 97.7584 134.653 95.7237C132.843 93.7739 131.193 91.6731 129.717 89.4428C129.239 88.7114 128.832 87.9801 128.417 87.2578C127.877 86.2717 127.409 85.2447 127.019 84.1858C125.86 80.986 125.816 78.0879 127.329 75.8389C129.191 73.2099 131.281 70.7618 133.574 68.5249C133.813 68.2781 134.069 68.0312 134.326 67.7843C134.397 67.7203 134.458 67.6472 134.538 67.5832C136.139 66.029 137.9 64.4656 139.748 62.9388C139.881 62.8182 140.02 62.7054 140.164 62.6006C152.549 52.4251 169.357 43.7123 177.318 50.2217C180.343 52.6902 181.821 57.0876 182.183 62.4634C182.183 62.9388 182.236 63.4234 182.263 63.9171C182.546 72.2093 180.458 82.4671 177.495 91.5547Z" fill="#3F8CFF"/>
<path d="M160.767 112.491C149.188 110.498 131.106 95.4951 127.001 84.1493C134.591 73.7086 158.087 56.4293 167.313 63.9444C176.69 71.6149 167.8 102.005 160.767 112.491Z" fill="#86BCFC"/>
<path d="M91.7493 84.1766C91.1503 85.7776 90.3915 87.3096 89.4849 88.7479C87.6388 91.6351 85.507 94.316 83.1243 96.7475C81.2299 98.7187 79.2212 100.569 77.1091 102.288C75.1332 103.935 73.0655 105.462 70.9168 106.859C66.4053 109.766 61.8672 111.851 58.028 112.518C55.1441 113.003 52.6583 112.701 50.8979 111.312C50.5259 111.034 50.1927 110.705 49.9073 110.333C49.81 110.205 49.7126 110.077 49.6241 109.94C48.7919 108.715 48.0269 107.442 47.3329 106.128C46.9525 105.415 46.5723 104.656 46.1831 103.87C45.6169 102.69 45.0418 101.429 44.4845 100.103C44.1041 99.1887 43.7414 98.2745 43.3787 97.3602C43.016 96.446 42.6534 95.4768 42.3084 94.5077C41.7953 93.0449 41.2911 91.5456 40.8134 90.0188C40.5038 88.9948 40.1942 87.9708 39.9288 86.9285C38.7338 82.7321 37.8204 78.4555 37.1953 74.1291C37.0626 73.2148 36.9565 72.3007 36.8592 71.4596C36.6413 69.4468 36.529 67.4235 36.5229 65.3982C36.5229 64.9868 36.5229 64.5845 36.5229 64.173C36.5229 63.7616 36.5229 63.4964 36.5229 63.1673C36.5229 62.6553 36.5584 62.1526 36.6292 61.6589C36.7088 60.9275 36.7971 60.2051 36.9121 59.5103C36.9652 59.1446 37.0362 58.7881 37.1069 58.4407C37.1028 58.3646 37.1028 58.2883 37.1069 58.2121C37.85 54.7929 39.2122 52.0227 41.3972 50.2399C48.5449 44.4162 62.6986 50.7611 74.4993 59.4465C75.552 60.2144 76.587 61.0097 77.5955 61.8142C78.0643 62.1891 78.5333 62.5639 78.9933 62.957C81.2961 64.8483 83.5046 66.8593 85.6101 68.982C87.7254 71.0787 89.6611 73.3606 91.3955 75.8022C92.9613 78.0787 92.9612 80.9768 91.7493 84.1766Z" fill="#3F8CFF"/>
<path d="M57.984 112.491C69.5636 110.498 87.645 95.4951 91.7496 84.1493C84.1596 73.7086 60.6644 56.4293 51.4379 63.9444C42.061 71.6149 50.9513 102.005 57.984 112.491Z" fill="#0C6ED6"/>
<path d="M198.381 253.413H20.3081C21.0777 243.411 22.0772 233.254 23.2537 223.087C23.3776 222.063 23.5016 221.048 23.6254 220.015C23.6254 219.906 23.6252 219.778 23.6783 219.659C23.8199 218.47 23.9791 217.273 24.1206 216.084C24.2002 215.49 24.271 214.914 24.3595 214.32C24.5099 213.168 24.6603 212.007 24.8195 210.855L24.9258 210.059C25.1911 208.139 25.4742 206.219 25.7572 204.318C25.8369 203.714 25.9342 203.138 26.0138 202.544C27.9511 189.745 30.3042 177.073 33.0907 164.941C35.2846 155.497 37.7526 146.373 40.548 137.715L41.176 135.777C43.8991 127.417 47.1225 119.24 50.8273 111.293C51.8534 109.117 52.906 107.006 53.994 104.939C61.2213 91.2256 69.8022 80.0901 79.9664 72.6756C81.7733 71.3428 83.6548 70.1217 85.6013 69.0186L86.0259 68.7992C86.2028 68.6895 86.3886 68.598 86.5656 68.5066C86.7635 68.389 86.9672 68.2821 87.1759 68.1865C87.6949 67.9061 88.2257 67.6411 88.7682 67.3912C89.128 67.2084 89.4995 67.0346 89.8829 66.87C90.9179 66.4038 91.9706 65.9559 93.0322 65.5902C93.386 65.453 93.7486 65.3249 94.1025 65.206C94.474 65.0689 94.8633 64.9501 95.2437 64.8313C97.446 64.135 99.6923 63.5973 101.967 63.2222L102.303 63.1764C102.692 63.1124 103.09 63.0485 103.479 63.0028C103.709 63.0028 103.93 62.9295 104.152 62.9113L105.222 62.8017C105.424 62.7672 105.628 62.7458 105.832 62.7376C106.16 62.7376 106.487 62.6829 106.814 62.6646L107.637 62.6006C108.186 62.6006 108.743 62.5548 109.3 62.5457H110.282C110.813 62.5457 111.326 62.5457 111.839 62.5457C112.352 62.5457 112.777 62.5457 113.237 62.6097H113.599C114.051 62.6097 114.484 62.6644 114.944 62.7102C115.018 62.7051 115.092 62.7051 115.165 62.7102L116.474 62.8566L117.43 62.9936C118.235 63.1125 119.031 63.2496 119.818 63.4141H119.96C120.535 63.5421 121.127 63.6612 121.729 63.8074C122.33 63.9537 122.95 64.1181 123.551 64.2918C124.153 64.4655 124.737 64.6484 125.321 64.8496C125.701 64.9684 126.09 65.1055 126.47 65.2518C127.187 65.5078 127.912 65.7822 128.611 66.093L129.682 66.5502L129.797 66.5957C130.115 66.7328 130.416 66.8791 130.725 67.0345C131.035 67.1899 131.486 67.4003 131.858 67.5923C132.129 67.7264 132.403 67.8727 132.68 68.0311C132.958 68.1896 133.232 68.3359 133.503 68.4699C135.484 69.5626 137.396 70.7841 139.227 72.1269L139.377 72.2367C140.032 72.7122 140.668 73.1966 141.296 73.7086C141.925 74.2205 142.42 74.6228 142.986 75.1257C143.552 75.6285 144.021 76.0399 144.534 76.5062C144.643 76.5909 144.743 76.6858 144.835 76.7897C145.286 77.2011 145.72 77.6215 146.153 78.0512C146.218 78.0982 146.278 78.1535 146.33 78.2157C146.852 78.7277 147.365 79.249 147.869 79.7884C148.922 80.8764 149.939 82.0192 150.948 83.2077C151.002 83.2593 151.049 83.3176 151.089 83.3813C151.523 83.8933 151.974 84.4053 152.372 84.9447C152.505 85.1001 152.629 85.2372 152.744 85.4018L153.628 86.5172C154.46 87.596 155.274 88.7023 156.079 89.8543C156.742 90.7685 157.397 91.7558 158.034 92.7249L159.104 94.3889C159.378 94.8095 159.635 95.2391 159.9 95.6596C160.165 96.0802 160.449 96.5738 160.723 97.0127C160.997 97.4515 161.28 97.927 161.554 98.4389C161.829 98.9509 162.191 99.5361 162.501 100.094C163.226 101.374 163.934 102.681 164.624 104.016C164.703 104.144 164.765 104.281 164.845 104.409L165.659 106.009C166.048 106.786 166.428 107.582 166.818 108.377C167.207 109.172 167.649 110.096 168.065 110.973C168.206 111.284 168.348 111.595 168.481 111.887C168.546 112 168.6 112.12 168.64 112.244C169.525 114.219 170.409 116.258 171.294 118.315L171.506 118.818C171.701 119.293 171.895 119.732 172.09 120.262C172.373 120.966 172.656 121.67 172.975 122.383C173.107 122.703 173.231 123.032 173.346 123.352C173.647 124.12 173.939 124.888 174.231 125.674C174.319 125.885 174.399 126.086 174.469 126.305C174.611 126.68 174.753 127.055 174.885 127.439L175.098 128.015L175.929 130.383C176.212 131.178 176.478 131.983 176.752 132.787L176.823 132.979C177.238 134.204 177.645 135.448 178.043 136.691C178.362 137.688 178.68 138.693 178.99 139.708L179.875 142.661C180.273 144.014 180.662 145.404 181.051 146.757C181.37 147.881 181.679 149.006 181.989 150.14C182.307 151.31 182.617 152.489 182.926 153.678C183.236 154.866 183.537 156.064 183.811 157.271L183.953 157.828C184.209 158.843 184.457 159.876 184.705 160.9C184.908 161.76 185.111 162.619 185.315 163.497C185.483 164.21 185.651 164.932 185.81 165.673C186.208 167.419 186.607 169.193 186.978 170.975C187.933 175.419 188.818 179.926 189.632 184.479C189.959 186.307 190.278 188.053 190.596 189.854C190.604 189.909 190.604 189.964 190.596 190.019C190.87 191.619 191.145 193.219 191.41 194.837C191.41 195.047 191.481 195.267 191.507 195.477C191.808 197.305 192.103 199.152 192.392 201.017C192.982 204.729 193.515 208.444 193.993 212.162C194.247 214.027 194.491 215.892 194.727 217.757C196.284 229.825 197.461 241.747 198.381 253.413Z" fill="#3F8CFF"/>
<path d="M171.639 253.413H47.1206C58.4967 209.529 77.7991 174.906 109.38 174.266C140.961 173.626 160.192 208.77 171.639 253.413Z" fill="#86BCFC"/>
<path d="M47.7314 180.081C44.3079 194.124 33.6572 198.522 26.0229 202.544C27.9603 189.745 30.3045 177.073 33.0999 164.941C35.2937 155.497 37.7617 146.373 40.5571 137.715L41.194 135.777C46.714 149.445 50.8099 167.428 47.7314 180.081Z" fill="#0C6ED6"/>
<path d="M105.018 299.061C79.5328 299.061 46.5633 290.229 28.3668 264.557C18.0964 250.057 8.94956 224.504 23.758 185.1C24.1844 183.804 24.8597 182.611 25.7436 181.591C26.6275 180.572 27.7017 179.748 28.9015 179.168C30.1014 178.589 31.4023 178.266 32.7259 178.219C34.0496 178.172 35.3688 178.402 36.6043 178.895C37.8398 179.388 38.966 180.135 39.9154 181.089C40.8648 182.043 41.6178 183.186 42.1291 184.449C42.6403 185.712 42.8995 187.068 42.8908 188.437C42.8821 189.806 42.6056 191.159 42.0783 192.414C32.781 217.163 33.5063 237.386 44.2278 252.517C58.4436 272.575 87.8483 280.026 110.68 278.527C134.777 276.927 158.945 263.414 170.834 244.892C180.255 230.2 181.883 213.387 175.646 194.938C175.22 193.677 175.039 192.342 175.112 191.009C175.186 189.676 175.513 188.371 176.074 187.168C176.636 185.966 177.421 184.889 178.385 184C179.349 183.111 180.473 182.427 181.692 181.987C182.912 181.547 184.204 181.36 185.494 181.436C186.784 181.512 188.046 181.849 189.21 182.43C190.373 183.01 191.415 183.821 192.275 184.817C193.135 185.814 193.797 186.975 194.223 188.236C202.468 212.665 200.053 236.133 187.235 256.119C171.887 280.035 142.34 296.794 111.954 298.796C109.707 298.979 107.398 299.061 105.018 299.061Z" fill="#0C6ED6"/>
<path d="M176.779 133.144C169.489 135.027 158.042 136.216 154.831 136.417C149.931 136.709 142.341 137.486 135.149 137.13C132.597 137.026 130.057 136.72 127.55 136.216C123.835 135.429 120.597 134.085 118.421 131.891C114.351 127.823 117.05 106.658 128.399 87.2394C131.515 81.8513 135.219 76.8511 139.439 72.3372C140.094 72.8126 140.731 73.2972 141.359 73.8092C141.987 74.3212 142.482 74.7235 143.048 75.2263C143.615 75.7292 144.083 76.1406 144.596 76.6068C144.705 76.6916 144.805 76.7863 144.897 76.8901C145.348 77.3015 145.782 77.7222 146.215 78.1519C146.281 78.1989 146.34 78.2541 146.392 78.3164C146.914 78.8283 147.427 79.3494 147.931 79.8888C148.984 80.9768 150.001 82.1196 151.01 83.3081C151.064 83.3597 151.111 83.418 151.151 83.4818C151.585 83.9937 152.036 84.5059 152.434 85.0453C152.567 85.2007 152.691 85.3379 152.806 85.5024L153.69 86.6178C154.522 87.6966 155.336 88.8027 156.141 89.9547C156.795 90.8689 157.45 91.8564 158.095 92.8255L159.166 94.4893C159.44 94.9099 159.697 95.3397 159.962 95.7602C160.227 96.1808 160.511 96.6745 160.785 97.1133C161.059 97.5521 161.342 98.0276 161.616 98.5396C161.891 99.0516 162.253 99.6365 162.563 100.194C163.288 101.474 163.996 102.782 164.686 104.116C164.766 104.253 164.828 104.391 164.898 104.528L165.721 106.118C166.11 106.896 166.491 107.691 166.88 108.486C167.269 109.282 167.711 110.224 168.127 111.11C168.263 111.421 168.404 111.726 168.552 112.025C168.605 112.144 168.658 112.253 168.711 112.381C168.95 112.902 169.189 113.451 169.419 113.981C169.649 114.511 169.905 115.069 170.135 115.627C170.365 116.184 170.71 116.98 171.02 117.675L171.559 118.955C171.754 119.43 171.949 119.869 172.143 120.399C172.426 121.103 172.709 121.807 173.028 122.52L173.399 123.489C173.7 124.257 173.992 125.025 174.284 125.811C174.372 126.013 174.443 126.223 174.523 126.442C174.735 127.009 174.939 127.585 175.151 128.152L175.983 130.52C176.266 131.315 176.531 132.12 176.805 132.924L176.779 133.144Z" fill="#0C6ED6"/>
<path d="M121.525 155.671C120.678 158.194 118.923 160.283 116.625 161.504C115.56 162.081 114.39 162.424 113.19 162.51C111.991 162.595 110.787 162.422 109.655 162.001C108.523 161.579 107.489 160.919 106.618 160.062C105.746 159.205 105.057 158.171 104.594 157.024C103.854 155.472 103.415 153.785 103.302 152.059C103.913 150.898 104.275 152.224 106.602 150.67C107.929 149.755 111.122 145.294 112.016 145.294C114.793 145.294 114.502 149.298 118.456 150.377C120.535 150.935 120.508 150.743 121.295 151.474C122.083 152.206 122.153 153.879 121.525 155.671Z" fill="#773232"/>
<path d="M121.525 155.671C120.678 158.194 118.923 160.283 116.625 161.504C115.56 162.082 114.39 162.424 113.19 162.51C111.991 162.595 110.787 162.422 109.655 162.001C108.523 161.579 107.489 160.919 106.618 160.062C105.746 159.206 105.057 158.171 104.594 157.024C106.952 155.735 109.529 154.931 112.184 154.656C116.005 154.19 119.5 154.638 121.525 155.671Z" fill="#F47171"/>
<path d="M112.36 144.345C116.141 144.306 119.175 140.995 119.136 136.951C119.097 132.906 115.999 129.659 112.218 129.699C108.437 129.738 105.403 133.048 105.442 137.092C105.481 141.137 108.578 144.384 112.36 144.345Z" fill="#183B59"/>
<path d="M128.443 148.686C127.322 150.03 125.851 151.014 124.206 151.52C122.479 151.995 120.653 151.919 118.969 151.301C117.318 150.691 115.784 149.784 114.44 148.622C113.113 147.472 111.925 146.161 110.901 144.718L112.732 144.563C111.94 146.167 110.903 147.63 109.663 148.896C108.425 150.197 106.911 151.18 105.239 151.767C103.562 152.33 101.761 152.365 100.065 151.867C98.4607 151.364 96.9776 150.517 95.7124 149.381C97.1487 150.105 98.6858 150.593 100.268 150.825C101.772 151.019 103.299 150.795 104.691 150.176C106.039 149.52 107.243 148.587 108.23 147.433C109.259 146.293 110.126 145.006 110.804 143.612L111.582 141.948L112.635 143.456C113.552 144.755 114.602 145.947 115.767 147.013C116.898 148.096 118.184 148.994 119.579 149.673C120.959 150.339 122.488 150.604 124.002 150.441C125.592 150.212 127.111 149.612 128.443 148.686Z" fill="#183B59"/>
<path d="M146.649 141.948C146.586 141.976 146.518 141.99 146.45 141.99C146.381 141.99 146.313 141.976 146.25 141.948C140.382 139.251 134.087 137.684 127.674 137.322C127.604 137.32 127.535 137.303 127.472 137.273C127.408 137.244 127.351 137.201 127.303 137.149C127.256 137.096 127.219 137.034 127.194 136.966C127.17 136.899 127.158 136.827 127.16 136.755C127.163 136.683 127.179 136.612 127.208 136.547C127.236 136.481 127.278 136.422 127.328 136.372C127.379 136.323 127.439 136.285 127.504 136.26C127.57 136.234 127.639 136.222 127.709 136.225C134.268 136.594 140.707 138.196 146.711 140.952C146.774 140.982 146.831 141.025 146.878 141.078C146.926 141.132 146.962 141.194 146.986 141.262C147.01 141.33 147.02 141.402 147.017 141.474C147.014 141.547 146.997 141.618 146.967 141.683C146.898 141.81 146.784 141.905 146.649 141.948Z" fill="#86BCFC"/>
<path d="M143.385 154.071C143.288 154.103 143.184 154.107 143.086 154.081C142.987 154.055 142.898 154.001 142.827 153.924C138.289 149.229 132.963 145.425 127.108 142.697C126.978 142.643 126.874 142.537 126.819 142.403C126.765 142.27 126.763 142.119 126.816 141.984C126.871 141.849 126.975 141.742 127.105 141.686C127.236 141.629 127.383 141.628 127.515 141.683C136.626 145.632 143.526 153.093 143.597 153.166C143.646 153.217 143.686 153.277 143.712 153.344C143.739 153.411 143.753 153.482 143.753 153.554C143.753 153.626 143.739 153.698 143.712 153.765C143.686 153.831 143.646 153.892 143.597 153.943C143.535 153.999 143.463 154.042 143.385 154.071Z" fill="#86BCFC"/>
<path d="M146.816 149.244C146.718 149.277 146.613 149.281 146.513 149.255C146.413 149.229 146.322 149.174 146.25 149.097C140.527 142.771 127.275 140.238 127.143 140.211C127.071 140.201 127.003 140.177 126.941 140.14C126.879 140.102 126.825 140.052 126.782 139.992C126.74 139.932 126.709 139.864 126.693 139.791C126.677 139.719 126.675 139.644 126.687 139.571C126.7 139.498 126.727 139.428 126.766 139.366C126.806 139.303 126.857 139.25 126.917 139.209C126.977 139.168 127.044 139.14 127.115 139.127C127.186 139.114 127.259 139.115 127.329 139.132C127.886 139.233 141.067 141.756 147.029 148.348C147.08 148.398 147.12 148.458 147.147 148.525C147.175 148.592 147.189 148.664 147.189 148.736C147.189 148.809 147.175 148.881 147.147 148.947C147.12 149.014 147.08 149.074 147.029 149.125C146.969 149.182 146.896 149.222 146.816 149.244Z" fill="#86BCFC"/>
<path d="M95.0315 138.245C94.97 138.256 94.9071 138.256 94.8456 138.245C85.2033 138.044 76.1625 141.902 76.0741 141.902C76.0096 141.93 75.9406 141.944 75.8709 141.944C75.8011 141.944 75.7319 141.93 75.6674 141.902C75.6029 141.875 75.5444 141.834 75.4951 141.783C75.4457 141.732 75.4065 141.672 75.3797 141.605C75.353 141.539 75.3394 141.467 75.3394 141.395C75.3393 141.323 75.353 141.251 75.3797 141.185C75.4064 141.118 75.4455 141.058 75.4949 141.007C75.5442 140.956 75.6027 140.915 75.6672 140.887C75.7557 140.887 84.991 136.911 94.8721 137.121C95.0121 137.126 95.1449 137.186 95.2423 137.29C95.3397 137.395 95.3942 137.534 95.3941 137.678C95.4011 137.801 95.3694 137.922 95.3041 138.024C95.2387 138.127 95.1431 138.204 95.0315 138.245Z" fill="#86BCFC"/>
<path d="M78.728 154.235C78.6138 154.276 78.4897 154.275 78.3762 154.232C78.2627 154.19 78.1665 154.108 78.1037 154.002C78.0408 153.895 78.0148 153.77 78.0302 153.646C78.0457 153.522 78.1016 153.408 78.1885 153.321C83.0492 148.753 88.6762 145.14 94.7927 142.661C94.9254 142.614 95.0707 142.621 95.1979 142.683C95.3251 142.744 95.4241 142.854 95.4739 142.99C95.4991 143.058 95.5107 143.13 95.5083 143.203C95.5058 143.275 95.4892 143.347 95.4594 143.412C95.4297 143.478 95.3875 143.537 95.3353 143.585C95.283 143.634 95.2218 143.671 95.1554 143.694C89.1753 146.117 83.674 149.649 78.9226 154.116C78.8666 154.17 78.8003 154.21 78.728 154.235Z" fill="#86BCFC"/>
<path d="M75.5344 149.244C75.4388 149.281 75.3347 149.287 75.2355 149.263C75.1362 149.238 75.0461 149.184 74.9769 149.106C74.9275 149.055 74.8882 148.995 74.8614 148.928C74.8346 148.862 74.8208 148.79 74.8208 148.718C74.8208 148.646 74.8346 148.574 74.8614 148.508C74.8882 148.441 74.9275 148.38 74.9769 148.329C81.2489 142.049 94.5269 140.193 95.0931 140.101C95.2326 140.083 95.3735 140.123 95.4846 140.212C95.5957 140.301 95.6682 140.432 95.6859 140.577C95.7037 140.721 95.6665 140.866 95.5822 140.982C95.498 141.098 95.3734 141.176 95.2347 141.198C95.0932 141.198 81.7355 143.082 75.7201 149.116C75.6684 149.172 75.6049 149.216 75.5344 149.244Z" fill="#86BCFC"/>
<path d="M132.177 53.787C132.177 53.8327 131.027 55.8167 129.523 58.8428C129.399 59.0714 129.284 59.3091 129.178 59.5377C128.815 60.2782 128.443 61.0462 128.063 61.869L127.692 62.6462C127.302 63.5056 126.895 64.4015 126.497 65.3341C124.395 69.9663 122.791 74.8223 121.712 79.8156C121.69 79.9235 121.643 80.024 121.573 80.1073C121.503 80.1906 121.414 80.2538 121.314 80.291C121.212 80.314 121.106 80.314 121.004 80.291C120.926 80.2757 120.852 80.2446 120.785 80.1995C120.719 80.1544 120.662 80.096 120.618 80.0281C120.573 79.9601 120.542 79.8837 120.527 79.8033C120.511 79.7229 120.511 79.6402 120.526 79.5598C121.615 74.5163 123.235 69.6111 125.356 64.9318C125.896 63.6702 126.444 62.4632 126.975 61.3387C127.063 61.1376 127.161 60.9456 127.258 60.7354C127.355 60.5251 127.391 60.4428 127.47 60.2874C127.621 59.9857 127.762 59.684 127.895 59.3732C128.028 59.0623 128.09 58.971 128.178 58.779C129.841 55.4054 131.088 53.1745 131.133 53.1196C131.168 53.039 131.22 52.9671 131.284 52.9085C131.348 52.8499 131.424 52.806 131.505 52.7795C131.587 52.753 131.674 52.7445 131.759 52.7547C131.844 52.7649 131.926 52.7937 132 52.8388C132.073 52.884 132.137 52.9447 132.186 53.017C132.236 53.0893 132.27 53.1716 132.287 53.2585C132.303 53.3453 132.302 53.4348 132.283 53.5212C132.264 53.6075 132.228 53.6887 132.177 53.7596V53.787Z" fill="#86BCFC"/>
<path d="M132.937 66.6048C132.725 66.806 132.512 67.0164 132.318 67.2267C132.123 67.437 132.035 67.5192 131.911 67.6747C128.574 71.4414 126.149 75.9719 124.834 80.8946C124.814 80.9983 124.767 81.0944 124.698 81.1732C124.63 81.2519 124.542 81.3105 124.445 81.3426C124.339 81.3789 124.224 81.3789 124.117 81.3426C124.039 81.3253 123.965 81.292 123.9 81.2448C123.834 81.1976 123.778 81.1374 123.735 81.0676C123.692 80.9978 123.663 80.9199 123.65 80.8384C123.637 80.7569 123.639 80.6733 123.657 80.5928C124.96 75.5654 127.411 70.9346 130.805 67.0894C131.017 66.8426 131.23 66.614 131.46 66.3763C131.69 66.1386 131.911 65.91 132.159 65.6723C132.216 65.6103 132.284 65.5611 132.36 65.5274C132.436 65.4937 132.518 65.4763 132.601 65.4763C132.684 65.4763 132.765 65.4937 132.842 65.5274C132.918 65.5611 132.986 65.6103 133.043 65.6723C133.097 65.7399 133.138 65.8182 133.162 65.9024C133.186 65.9866 133.193 66.0748 133.183 66.162C133.173 66.2492 133.146 66.3334 133.104 66.4095C133.062 66.4856 133.005 66.5521 132.937 66.6048Z" fill="#86BCFC"/>
<path d="M98.3665 80.3826C98.3745 80.5194 98.3378 80.6549 98.2625 80.7676C98.1871 80.8803 98.0772 80.9636 97.9506 81.0042H97.7914C97.631 81.0117 97.4742 80.9537 97.3549 80.8424C97.2357 80.7312 97.1637 80.5758 97.1545 80.4101C96.7049 75.2195 95.7022 70.0962 94.1646 65.1331C93.8904 64.2188 93.616 63.3046 93.3506 62.3903C91.6787 57.0968 90.1041 53.2477 90.0688 53.1289C90.0065 52.976 90.0051 52.8041 90.0647 52.6501C90.1243 52.4961 90.2402 52.3725 90.3873 52.3062C90.5368 52.2472 90.7022 52.2493 90.8501 52.3122C90.9981 52.3751 91.1173 52.4938 91.1834 52.6443C91.2276 52.7266 92.8908 56.8317 94.6158 62.3903C94.6954 62.6646 94.7837 62.9388 94.8633 63.2222C94.9429 63.5056 95.0845 63.9261 95.1819 64.2826C95.2312 64.4233 95.2725 64.5669 95.3056 64.7125C96.882 69.8033 97.9087 75.0585 98.3665 80.3826Z" fill="#86BCFC"/>
<path d="M95.1642 80.9949C95.1799 81.135 95.149 81.2766 95.0767 81.3963C95.0043 81.5159 94.8949 81.6064 94.7661 81.6532H94.6244C94.4662 81.6685 94.3087 81.6184 94.186 81.5139C94.0634 81.4094 93.9855 81.2591 93.9698 81.0956C93.2886 76.1768 91.5243 71.4852 88.8127 67.3819C88.6623 67.1533 88.503 66.9156 88.335 66.6871L87.6981 65.846C87.6429 65.7817 87.6009 65.7063 87.575 65.6246C87.549 65.543 87.5394 65.4567 87.5469 65.3711C87.5543 65.2854 87.5787 65.2024 87.6184 65.1269C87.658 65.0513 87.7122 64.9849 87.7775 64.9318C87.8398 64.874 87.9131 64.8301 87.9927 64.8032C88.0722 64.7763 88.1563 64.7669 88.2395 64.7756C88.3228 64.7842 88.4034 64.8106 88.4762 64.8532C88.549 64.8958 88.6122 64.9537 88.6622 65.0231C89.0249 65.4802 89.3611 65.9373 89.6796 66.3945L89.9716 66.8241C92.7551 71.0608 94.5339 75.9155 95.1642 80.9949Z" fill="#86BCFC"/>
<path d="M141.645 95.4769C148.451 95.4065 153.947 93.2047 153.922 90.5589C153.896 87.9131 148.358 85.8253 141.553 85.8956C134.747 85.9659 129.251 88.1678 129.276 90.8136C129.302 93.4594 134.84 95.5472 141.645 95.4769Z" fill="#86BCFC"/>
<path d="M80.679 96.6734C87.4843 96.6046 92.9807 94.4042 92.9557 91.7585C92.9306 89.1128 87.3936 87.0238 80.5883 87.0926C73.7831 87.1613 68.2864 89.3618 68.3114 92.0075C68.3364 94.6531 73.8737 96.7421 80.679 96.6734Z" fill="#86BCFC"/>
<path d="M157.609 119.567C157.52 128.554 148.639 134.058 139.545 133.948C130.451 133.839 122.003 132.266 122.1 123.279C122.198 114.292 130.796 101.337 139.89 101.41C148.984 101.483 157.706 110.553 157.609 119.567Z" fill="#3F8CFF"/>
<path d="M153.266 119.695C153.195 126.296 146.675 130.337 139.996 130.264C133.318 130.191 127.108 129.02 127.178 122.419C127.249 115.819 133.565 106.283 140.244 106.356C146.923 106.429 153.336 113.048 153.266 119.695Z" fill="#B0E881"/>
<path d="M146.179 117.916C146.232 112.857 143.681 108.727 140.481 108.692C137.281 108.656 134.644 112.728 134.592 117.787C134.539 122.846 137.09 126.976 140.29 127.012C143.489 127.048 146.126 122.975 146.179 117.916Z" fill="#183B59"/>
<path d="M65.7595 118.534C65.671 127.521 74.4287 133.217 83.5226 133.317C92.6164 133.418 101.091 132.028 101.215 123.041C101.339 114.054 92.9879 100.88 83.894 100.779C74.8002 100.679 65.8568 109.547 65.7595 118.534Z" fill="#0C6ED6"/>
<path d="M70.1026 118.708C70.0319 125.309 76.4718 129.496 83.1507 129.578C89.8295 129.66 96.0573 128.664 96.1281 122.027C96.1989 115.389 90.0861 105.744 83.4073 105.671C76.7284 105.597 70.1734 112.107 70.1026 118.708Z" fill="#B0E881"/>
<path d="M88.3547 117.266C88.4076 112.207 85.8565 108.077 82.6566 108.041C79.4568 108.005 76.8198 112.077 76.7668 117.136C76.7138 122.195 79.2649 126.326 82.4648 126.361C85.6647 126.397 88.3017 122.325 88.3547 117.266Z" fill="#183B59"/>
</g>
</g>
<circle cx="108" cy="108" r="106" stroke="url(#paint0_linear_8_8367)" stroke-width="4"/>
<defs>
<linearGradient id="paint0_linear_8_8367" x1="108" y1="-6.87342e-05" x2="225.649" y2="8.26374" gradientUnits="userSpaceOnUse">
<stop stop-color="#FFB546"/>
<stop offset="1" stop-color="#3F8CFF"/>
</linearGradient>
<clipPath id="clip0_8_8367">
<rect width="183" height="251.052" fill="white" transform="translate(16 48)"/>
</clipPath>
</defs>
</svg>
