<svg width="614" height="186" viewBox="0 0 614 186" fill="none" xmlns="http://www.w3.org/2000/svg">
<path d="M356.429 42.8394V151H336.836V61.9048H336.202L310.905 78.0655V60.1091L337.786 42.8394H356.429ZM591.948 42.8394L590.205 119.207H573.199L571.509 42.8394H591.948ZM581.702 152.162C578.498 152.162 575.752 151.035 573.463 148.782C571.21 146.529 570.083 143.782 570.083 140.543C570.083 137.374 571.21 134.663 573.463 132.41C575.752 130.157 578.498 129.03 581.702 129.03C584.836 129.03 587.547 130.157 589.835 132.41C592.159 134.663 593.321 137.374 593.321 140.543C593.321 142.691 592.775 144.645 591.684 146.405C590.628 148.166 589.219 149.574 587.459 150.63C585.734 151.651 583.815 152.162 581.702 152.162Z" fill="#3F8CFF"/>
<path d="M6.30414 129.795V65.88H17.8825V92.9378H47.4995V65.88H59.1091V129.795H47.4995V102.644H17.8825V129.795H6.30414ZM84.9967 130.763C81.959 130.763 79.2231 130.222 76.7888 129.14C74.3753 128.037 72.4612 126.414 71.0464 124.271C69.6524 122.128 68.9555 119.486 68.9555 116.344C68.9555 113.64 69.4548 111.403 70.4535 109.634C71.4521 107.866 72.8149 106.451 74.5418 105.39C76.2687 104.329 78.214 103.528 80.3778 102.987C82.5624 102.425 84.8198 102.02 87.1501 101.77C89.9589 101.479 92.2371 101.219 93.9848 100.99C95.7325 100.74 97.0016 100.365 97.7922 99.8662C98.6036 99.346 99.0094 98.545 99.0094 97.4631V97.2758C99.0094 94.9248 98.3124 93.1043 96.9184 91.8143C95.5244 90.5244 93.5166 89.8794 90.8951 89.8794C88.1279 89.8794 85.9329 90.4828 84.3101 91.6895C82.7081 92.8962 81.6262 94.3214 81.0644 95.9651L70.5159 94.4671C71.3481 91.5543 72.7213 89.12 74.6354 87.1642C76.5495 85.1877 78.8902 83.7105 81.6574 82.7326C84.4245 81.7339 87.483 81.2346 90.8327 81.2346C93.1421 81.2346 95.4412 81.5051 97.7298 82.046C100.018 82.587 102.109 83.4816 104.003 84.73C105.896 85.9575 107.415 87.6324 108.559 89.7546C109.724 91.8767 110.307 94.5295 110.307 97.7128V129.795H99.4463V123.21H99.0718C98.3852 124.542 97.4177 125.79 96.1694 126.955C94.9418 128.1 93.3918 129.025 91.5193 129.733C89.6676 130.419 87.4934 130.763 84.9967 130.763ZM87.9303 122.461C90.1981 122.461 92.1643 122.014 93.8287 121.119C95.4932 120.204 96.7727 118.997 97.6674 117.499C98.5828 116.001 99.0406 114.368 99.0406 112.599V106.951C98.6869 107.242 98.0835 107.512 97.2305 107.762C96.3982 108.012 95.462 108.23 94.4217 108.417C93.3814 108.605 92.3515 108.771 91.332 108.917C90.3126 109.062 89.4283 109.187 88.6793 109.291C86.994 109.52 85.4856 109.895 84.154 110.415C82.8225 110.935 81.7718 111.663 81.002 112.599C80.2322 113.515 79.8473 114.701 79.8473 116.157C79.8473 118.238 80.6067 119.808 82.1255 120.87C83.6443 121.931 85.5792 122.461 87.9303 122.461ZM143.466 129.795V81.8588H163.596C169.276 81.8588 173.759 82.9927 177.047 85.2605C180.355 87.5283 182.009 90.6908 182.009 94.7479C182.009 97.4319 181.072 99.6269 179.2 101.333C177.348 103.018 174.82 104.152 171.616 104.735C174.134 104.943 176.339 105.577 178.232 106.638C180.147 107.7 181.645 109.094 182.726 110.82C183.808 112.547 184.349 114.534 184.349 116.781C184.349 119.424 183.652 121.723 182.258 123.678C180.885 125.613 178.877 127.122 176.235 128.204C173.614 129.265 170.43 129.795 166.685 129.795H143.466ZM154.046 120.901H166.685C168.766 120.901 170.399 120.412 171.585 119.434C172.771 118.435 173.364 117.083 173.364 115.377C173.364 113.4 172.771 111.85 171.585 110.727C170.399 109.582 168.766 109.01 166.685 109.01H154.046V120.901ZM154.046 101.707H163.814C165.354 101.707 166.675 101.489 167.778 101.052C168.88 100.594 169.723 99.9598 170.305 99.1484C170.888 98.3161 171.179 97.3279 171.179 96.1835C171.179 94.5399 170.503 93.2499 169.151 92.3137C167.819 91.3774 165.967 90.9093 163.596 90.9093H154.046V101.707ZM214.583 130.731C209.797 130.731 205.688 129.681 202.255 127.579C198.843 125.478 196.211 122.576 194.359 118.872C192.529 115.148 191.613 110.862 191.613 106.014C191.613 101.146 192.549 96.8493 194.422 93.1251C196.294 89.3801 198.937 86.4673 202.349 84.3867C205.782 82.2853 209.839 81.2346 214.52 81.2346C218.411 81.2346 221.854 81.9524 224.85 83.388C227.867 84.8028 230.27 86.8105 232.06 89.4113C233.849 91.9912 234.868 95.008 235.118 98.4618H224.32C223.883 96.1523 222.843 94.2278 221.199 92.6882C219.576 91.1277 217.402 90.3475 214.676 90.3475C212.367 90.3475 210.338 90.9717 208.591 92.22C206.843 93.4476 205.48 95.2161 204.502 97.5255C203.545 99.8349 203.067 102.602 203.067 105.827C203.067 109.094 203.545 111.902 204.502 114.253C205.459 116.584 206.801 118.383 208.528 119.652C210.276 120.901 212.325 121.525 214.676 121.525C216.341 121.525 217.828 121.213 219.139 120.589C220.471 119.944 221.584 119.018 222.478 117.811C223.373 116.604 223.987 115.138 224.32 113.411H235.118C234.847 116.802 233.849 119.808 232.122 122.43C230.395 125.031 228.044 127.07 225.069 128.547C222.094 130.003 218.598 130.731 214.583 130.731ZM265.617 130.731C260.81 130.731 256.66 129.733 253.164 127.735C249.69 125.717 247.016 122.867 245.144 119.184C243.271 115.481 242.335 111.122 242.335 106.108C242.335 101.177 243.271 96.8493 245.144 93.1251C247.037 89.3801 249.679 86.4673 253.071 84.3867C256.462 82.2853 260.446 81.2346 265.024 81.2346C267.978 81.2346 270.766 81.7131 273.388 82.6702C276.03 83.6065 278.36 85.0629 280.378 87.0394C282.417 89.016 284.019 91.5335 285.184 94.5919C286.35 97.6295 286.932 101.25 286.932 105.452V108.917H247.64V101.302H276.103C276.082 99.138 275.614 97.2134 274.698 95.5282C273.783 93.8221 272.503 92.4801 270.86 91.5022C269.237 90.5244 267.343 90.0354 265.18 90.0354C262.87 90.0354 260.842 90.5972 259.094 91.7207C257.346 92.8234 255.984 94.2798 255.006 96.0899C254.049 97.8792 253.56 99.8454 253.539 101.988V108.636C253.539 111.424 254.049 113.816 255.068 115.814C256.088 117.79 257.513 119.309 259.344 120.37C261.175 121.411 263.318 121.931 265.773 121.931C267.416 121.931 268.904 121.702 270.235 121.244C271.567 120.766 272.722 120.069 273.7 119.153C274.677 118.238 275.416 117.104 275.915 115.751L286.464 116.937C285.798 119.725 284.529 122.16 282.657 124.24C280.805 126.3 278.433 127.902 275.541 129.046C272.649 130.17 269.341 130.731 265.617 130.731Z" fill="#0C6ED6"/>
<path fill-rule="evenodd" clip-rule="evenodd" d="M557.705 72.553C557.705 72.553 547.748 49.8575 529.395 41.9911C511.042 34.1247 491.243 44.0661 491.243 44.0661C491.243 44.0661 491.294 44.1831 491.396 44.4029C491.353 44.3101 491.317 44.2363 491.291 44.1817C491.255 44.1071 491.236 44.0691 491.236 44.0691C491.236 44.0691 470.897 52.852 465.131 71.9694C459.366 91.087 470.359 113.299 470.359 113.299C470.359 113.299 490.698 104.516 496.463 85.3989C501.733 67.9252 493.003 47.8657 491.462 44.5456C493.017 47.859 502.778 67.4379 519.553 74.6279C537.906 82.4943 557.705 72.553 557.705 72.553ZM498.672 143.868C480.319 136.002 470.362 113.307 470.362 113.307C470.362 113.307 490.161 103.365 508.514 111.232C525.289 118.422 535.05 138 536.604 141.314C535.064 137.994 526.334 117.934 531.603 100.461C537.369 81.3433 557.708 72.5602 557.708 72.5602C557.708 72.5602 568.701 94.7724 562.935 113.89C557.17 133.007 536.83 141.79 536.83 141.79C536.83 141.79 536.774 141.676 536.671 141.457C536.773 141.676 536.824 141.793 536.824 141.793C536.824 141.793 517.025 151.735 498.672 143.868Z" fill="url(#paint0_linear_61_518)"/>
<path fill-rule="evenodd" clip-rule="evenodd" d="M459.463 90.7718C459.463 90.7718 459.168 65.7674 445.349 51.2156C431.53 36.6641 409.42 38.0758 409.42 38.0758C409.42 38.0758 409.421 38.2045 409.429 38.4489C409.426 38.3457 409.422 38.2632 409.419 38.2022C409.416 38.1189 409.413 38.076 409.413 38.076C409.413 38.076 387.258 38.1986 374.48 53.672C361.701 69.1457 363.138 94.1105 363.138 94.1105C363.138 94.1105 385.293 93.9878 398.071 78.5143C409.751 64.3713 409.555 42.2987 409.435 38.6077C409.571 42.2981 410.903 64.3313 423.534 77.6317C437.353 92.1833 459.463 90.7718 459.463 90.7718ZM377.253 133.674C363.434 119.123 363.139 94.1185 363.139 94.1185C363.139 94.1185 385.249 92.707 399.068 107.259C411.699 120.559 413.031 142.592 413.167 146.283C413.047 142.592 412.851 120.519 424.53 106.376C437.309 90.9025 459.463 90.7798 459.463 90.7798C459.463 90.7798 460.901 115.745 448.122 131.218C435.343 146.692 413.189 146.814 413.189 146.814C413.189 146.814 413.181 146.685 413.172 146.441C413.18 146.686 413.182 146.815 413.182 146.815C413.182 146.815 391.072 148.226 377.253 133.674Z" fill="#3F8CFF"/>
<defs>
<linearGradient id="paint0_linear_61_518" x1="472.472" y1="112.317" x2="556.754" y2="73.0004" gradientUnits="userSpaceOnUse">
<stop stop-color="#FF9432"/>
<stop offset="1" stop-color="#FFB546"/>
</linearGradient>
</defs>
</svg>
