<svg width="216" height="216" viewBox="0 0 216 216" fill="none" xmlns="http://www.w3.org/2000/svg">
<mask id="mask0_14_47" style="mask-type:alpha" maskUnits="userSpaceOnUse" x="2" y="2" width="212" height="212">
<circle cx="107.999" cy="108" r="105.231" fill="#D9D9D9"/>
</mask>
<g mask="url(#mask0_14_47)">
<rect x="-8.30811" width="227.077" height="227.077" fill="white"/>
<path d="M55.015 107.223C57.0718 109.358 60.1405 109.525 63.6538 108.335C74.772 104.644 90.2486 87.5997 92.5612 76.2147C93.2282 72.9904 92.8391 70.222 91.0046 68.3319C80.6202 57.6251 48.0105 41.0256 38.0708 51.7547C28.1312 62.4837 44.6306 96.5165 55.015 107.223Z" fill="#3F8CFF"/>
<path d="M63.6534 108.368C74.7716 104.677 90.2481 87.6328 92.5607 76.2478C83.5439 67.4978 57.8942 54.7118 49.9558 63.2729C42.0174 71.8339 55.1813 99.4848 63.6534 108.368Z" fill="#0C6ED6"/>
<path d="M51.0138 280.645C42.6979 280.783 34.5915 278.032 28.077 272.862C7.71953 256.418 9.33165 221.073 32.0795 184.906C34.1849 181.569 37.5295 179.206 41.3775 178.335C45.2255 177.465 49.2617 178.159 52.5981 180.264C55.9346 182.369 58.2981 185.714 59.1686 189.562C60.0391 193.41 59.3454 197.446 57.24 200.783C40.496 227.389 42.1859 246.112 46.7444 249.792C50.4468 252.783 66.3347 250.904 91.8509 225.977C93.2467 224.614 94.8974 223.539 96.7086 222.814C98.5197 222.089 100.456 221.728 102.407 221.751C104.357 221.774 106.285 222.181 108.078 222.949C109.871 223.717 111.496 224.831 112.859 226.227C114.222 227.623 115.296 229.273 116.021 231.084C116.747 232.895 117.108 234.832 117.085 236.782C117.061 238.733 116.654 240.66 115.886 242.454C115.118 244.247 114.004 245.872 112.609 247.235C85.836 273.351 65.4341 280.645 51.0138 280.645Z" fill="#0C6ED6"/>
<path d="M317.183 298.09C317.839 363.164 266.195 375.917 201.131 375.15C165.553 374.761 137.757 371.748 116.054 353.569C110.114 348.543 104.879 342.739 100.489 336.314C89.5597 320.604 80.6095 298.568 73.3049 267.704C71.7483 261.111 68.0238 237.684 64.5882 211.345C64.2213 208.566 63.8656 205.786 63.4764 202.929C59.6851 172.565 56.5831 140.289 57.7061 126.136C61.4307 79.1056 78.4526 62.3838 114.031 57.2027C119.111 56.4212 124.268 56.2681 129.385 56.7469C152.244 59.0483 168.299 75.6478 180.284 105.2C182.008 109.436 183.62 113.95 185.187 118.72C189.579 132.217 195.516 140.867 200.953 146.382C208.369 153.898 214.873 155.599 215.329 155.777C234.246 163.112 251.778 173.613 267.173 186.83C299.193 214.725 316.727 253.039 317.183 298.09Z" fill="#3F8CFF"/>
<path d="M100.512 336.313C89.5832 320.603 80.633 298.567 73.3284 267.703C71.6051 260.421 68.5031 246.223 64.8007 216.559C64.6403 214.826 64.5772 213.085 64.6117 211.345C64.7673 198.192 68.8699 181.715 80.7331 182.438C93.4856 183.249 76.2858 207.665 100.512 336.313Z" fill="#86BCFC"/>
<path d="M267.231 186.829C254.056 195.257 221.568 218.783 202.3 203.218C190.326 193.545 189.804 165.582 201.011 146.381C208.427 153.897 214.931 155.598 215.386 155.776C234.304 163.112 251.836 173.613 267.231 186.829Z" fill="#0C6ED6"/>
<path d="M180.34 105.166C169.533 110.625 140.314 120.732 136.979 121.844C127.951 124.679 108.127 129.193 100.811 126.447C93.8955 123.834 96.4639 80.0282 129.463 56.7578C152.299 59.0482 168.388 75.6365 180.34 105.166Z" fill="#0C6ED6"/>
<path d="M135.823 104.466C138.046 113.216 130.508 120.887 121.369 123.177C112.23 125.468 103.346 126.157 101.156 117.407C98.9657 108.657 104.291 93.8032 113.386 91.5128C122.481 89.2225 133.632 95.7266 135.823 104.466Z" fill="#3F8CFF"/>
<path d="M131.487 105.689C133.1 112.115 127.585 117.752 120.87 119.431C114.154 121.11 107.628 121.655 106.027 115.195C104.426 108.735 108.317 97.8506 115.044 96.1717C121.77 94.4929 129.875 99.2626 131.487 105.689Z" fill="#B0E881"/>
<path d="M121.09 105.512C122.639 105.124 123.465 103.096 122.935 100.981C122.406 98.8668 120.721 97.467 119.172 97.8549C117.624 98.2427 116.797 100.271 117.327 102.386C117.857 104.5 119.541 105.9 121.09 105.512Z" fill="#183B59"/>
<path d="M52.6373 125.679C54.772 134.207 62.488 136.253 69.4257 135.208C76.8416 134.096 82.3228 131.461 80.1881 122.978C78.0534 114.494 68.6141 103.632 61.7986 105.333C54.9832 107.034 50.5026 117.163 52.6373 125.679Z" fill="#0C6ED6"/>
<path d="M55.9265 124.99C57.4942 131.261 64.4208 132.239 68.1565 131.661C73.2598 130.905 77.7516 129.215 76.1839 122.945C74.6163 116.674 68.1565 108.736 63.1534 109.981C58.1502 111.226 54.3589 118.731 55.9265 124.99Z" fill="#B0E881"/>
<path d="M92.7386 143.197C96.4077 142.278 98.6107 138.453 97.659 134.652C96.7072 130.852 92.9612 128.516 89.292 129.435C85.6229 130.354 83.42 134.18 84.3717 137.98C85.3234 141.78 89.0694 144.116 92.7386 143.197Z" fill="#183B59"/>
<path d="M112.607 143.179C112.477 143.625 112.26 144.041 111.968 144.401C111.676 144.762 111.315 145.061 110.906 145.281C110.076 145.724 109.171 146.011 108.238 146.126C106.417 146.337 104.576 146.293 102.767 145.992C100.985 145.734 99.2214 145.362 97.4863 144.88C95.7519 144.369 94.073 143.769 92.372 143.135L93.8396 142.257C93.6333 143.787 93.1709 145.271 92.472 146.648C91.7622 148.061 90.6922 149.261 89.37 150.128C88.039 150.947 86.4791 151.313 84.9227 151.173C83.4605 151.035 82.0419 150.6 80.7534 149.895C82.1208 150.173 83.521 150.256 84.9116 150.139C86.1992 150.035 87.43 149.565 88.4583 148.783C89.4222 147.964 90.1833 146.932 90.682 145.77C91.2386 144.592 91.6135 143.336 91.7938 142.045L91.9495 140.633L93.2503 141.167C94.8402 141.812 96.4968 142.412 98.1534 142.946C99.81 143.48 101.489 143.98 103.145 144.391C104.811 144.821 106.518 145.067 108.238 145.125C109.794 145.103 111.673 144.78 112.607 143.179Z" fill="#183B59"/>
<path d="M109.206 133.762C109.11 133.762 109.017 133.736 108.935 133.687C108.852 133.638 108.785 133.568 108.739 133.484C108.706 133.424 108.685 133.357 108.678 133.288C108.67 133.22 108.677 133.15 108.696 133.084C108.716 133.018 108.749 132.956 108.792 132.903C108.836 132.849 108.89 132.805 108.95 132.772C114.805 129.775 121.157 127.868 127.696 127.147C127.835 127.137 127.973 127.184 128.079 127.275C128.185 127.367 128.251 127.496 128.263 127.636C128.272 127.775 128.228 127.913 128.139 128.02C128.05 128.128 127.923 128.197 127.785 128.214C121.393 128.911 115.183 130.772 109.462 133.706C109.381 133.742 109.294 133.761 109.206 133.762Z" fill="#86BCFC"/>
<path d="M130.82 139.988C130.772 139.998 130.723 139.998 130.676 139.988C124.46 138.351 118 137.854 111.608 138.52C111.468 138.539 111.326 138.502 111.213 138.416C111.101 138.331 111.027 138.204 111.007 138.064C110.991 137.925 111.03 137.784 111.115 137.673C111.2 137.561 111.325 137.486 111.463 137.464C118.005 136.773 124.618 137.286 130.976 138.976C131.109 139.017 131.221 139.109 131.287 139.232C131.354 139.354 131.37 139.498 131.332 139.632C131.296 139.738 131.227 139.83 131.135 139.894C131.043 139.959 130.932 139.991 130.82 139.988Z" fill="#86BCFC"/>
<path d="M110.24 136.431C110.115 136.429 109.995 136.384 109.901 136.303C109.806 136.222 109.743 136.11 109.722 135.988C109.7 135.865 109.723 135.739 109.785 135.631C109.847 135.523 109.945 135.44 110.062 135.397C110.596 135.208 123.215 130.671 131.587 133.173C131.654 133.193 131.717 133.227 131.771 133.271C131.825 133.316 131.87 133.371 131.903 133.433C131.936 133.495 131.957 133.563 131.963 133.633C131.97 133.702 131.963 133.773 131.943 133.84C131.901 133.973 131.81 134.085 131.687 134.152C131.565 134.218 131.421 134.234 131.287 134.196C123.248 131.783 110.551 136.342 110.429 136.42C110.367 136.434 110.303 136.438 110.24 136.431Z" fill="#86BCFC"/>
<path d="M61.5309 144.792C61.406 144.799 61.2826 144.761 61.1832 144.685C61.0839 144.609 61.0151 144.5 60.9895 144.377C60.964 144.254 60.9832 144.127 61.0438 144.017C61.1044 143.908 61.2023 143.824 61.3197 143.78C67.4192 141.33 73.9152 140.015 80.4874 139.9C80.629 139.9 80.7647 139.956 80.8648 140.056C80.9649 140.156 81.0211 140.292 81.0211 140.434C81.0244 140.504 81.0128 140.574 80.987 140.64C80.9612 140.706 80.9218 140.765 80.8714 140.814C80.821 140.864 80.7607 140.902 80.6946 140.926C80.6284 140.951 80.5578 140.961 80.4874 140.956C74.0576 141.043 67.7004 142.329 61.7422 144.747C61.6761 144.778 61.6038 144.793 61.5309 144.792Z" fill="#86BCFC"/>
<path d="M64.3662 156.643C64.2949 156.644 64.2243 156.63 64.1591 156.601C64.0939 156.572 64.0356 156.53 63.9881 156.477C63.9373 156.429 63.8968 156.371 63.8692 156.307C63.8415 156.243 63.8271 156.174 63.8271 156.104C63.8271 156.034 63.8415 155.965 63.8692 155.901C63.8968 155.837 63.9373 155.78 63.9881 155.732C68.8007 151.244 74.3922 147.672 80.4876 145.192C80.5525 145.167 80.6217 145.155 80.6911 145.158C80.7606 145.16 80.8288 145.176 80.892 145.205C80.9552 145.234 81.0119 145.275 81.0589 145.326C81.1059 145.378 81.1422 145.438 81.1657 145.503C81.1907 145.569 81.2025 145.639 81.2004 145.709C81.1982 145.779 81.1823 145.848 81.1533 145.912C81.1244 145.976 81.0831 146.034 81.0318 146.082C80.9805 146.13 80.9202 146.168 80.8544 146.192C74.902 148.615 69.4394 152.1 64.733 156.477C64.6859 156.527 64.6293 156.568 64.5663 156.597C64.5034 156.625 64.4353 156.641 64.3662 156.643Z" fill="#86BCFC"/>
<path d="M61.1078 151.863C61.0365 151.864 60.9659 151.849 60.9007 151.82C60.8356 151.792 60.7772 151.749 60.7297 151.696C60.6803 151.647 60.6411 151.589 60.6143 151.526C60.5875 151.462 60.5737 151.393 60.5737 151.324C60.5737 151.254 60.5875 151.186 60.6143 151.122C60.6411 151.058 60.6803 151 60.7297 150.951C66.9226 144.792 80.1977 142.835 80.7425 142.746C80.8119 142.736 80.8826 142.739 80.9506 142.756C81.0185 142.773 81.0825 142.804 81.1387 142.846C81.195 142.887 81.2425 142.94 81.2785 143C81.3144 143.06 81.3382 143.127 81.3484 143.196C81.3586 143.266 81.3551 143.336 81.338 143.404C81.3209 143.472 81.2906 143.536 81.2488 143.592C81.207 143.649 81.1545 143.696 81.0944 143.732C81.0342 143.768 80.9675 143.792 80.8982 143.802C80.7648 143.802 67.4118 145.792 61.4636 151.707C61.3694 151.803 61.242 151.859 61.1078 151.863Z" fill="#86BCFC"/>
<path d="M92.4956 74.313C92.3609 74.3126 92.2301 74.2676 92.1235 74.1852C92.017 74.1028 91.9406 73.9874 91.9063 73.8572C89.1156 62.9725 90.55 46.3396 90.5722 46.1729C90.5869 46.0136 90.6643 45.8668 90.7873 45.7646C90.9103 45.6624 91.0689 45.6133 91.2281 45.6281C91.3874 45.6428 91.5342 45.7202 91.6364 45.8432C91.7385 45.9662 91.7876 46.1248 91.7729 46.284C91.7729 46.4397 90.3387 62.8724 93.0738 73.557C93.0938 73.6336 93.0985 73.7135 93.0875 73.792C93.0765 73.8705 93.0501 73.9459 93.0098 74.0142C92.9695 74.0824 92.9161 74.1419 92.8526 74.1894C92.7892 74.2369 92.717 74.2714 92.6402 74.2908L92.4956 74.313Z" fill="#86BCFC"/>
<path d="M95.7188 73.913C95.5806 73.9133 95.4465 73.8659 95.3391 73.7788C95.2317 73.6917 95.1577 73.5702 95.1295 73.4349C94.119 67.8412 94.6415 62.0783 96.6416 56.7576C96.6699 56.6837 96.7125 56.6162 96.767 56.5589C96.8215 56.5015 96.8868 56.4555 96.9591 56.4235C97.0314 56.3915 97.1094 56.374 97.1885 56.3722C97.2676 56.3704 97.3462 56.3842 97.4199 56.4129C97.5699 56.4724 97.6902 56.5888 97.7548 56.7366C97.8193 56.8845 97.8229 57.0519 97.7646 57.2023C95.883 62.315 95.3807 67.833 96.3081 73.2014C96.3415 73.3575 96.3125 73.5205 96.2273 73.6556C96.1421 73.7906 96.0075 73.887 95.8523 73.9241L95.7188 73.913Z" fill="#86BCFC"/>
<path d="M71.659 84.9311C71.5495 84.929 71.4426 84.8981 71.3489 84.8415C71.2552 84.7849 71.178 84.7046 71.1253 84.6087C65.833 74.947 53.5808 63.9177 53.4585 63.8065C53.3979 63.7544 53.3483 63.6908 53.3127 63.6193C53.277 63.5478 53.256 63.4699 53.2508 63.3901C53.2456 63.3104 53.2563 63.2304 53.2825 63.1549C53.3086 63.0794 53.3496 63.0099 53.4029 62.9504C53.458 62.8922 53.5243 62.8458 53.5979 62.8141C53.6715 62.7825 53.7508 62.7661 53.8309 62.7661C53.911 62.7661 53.9903 62.7825 54.0639 62.8141C54.1375 62.8458 54.2039 62.8922 54.259 62.9504C54.3813 63.0616 66.7892 74.2243 72.1926 84.075C72.2681 84.2168 72.2848 84.3826 72.239 84.5365C72.1932 84.6904 72.0887 84.8202 71.9481 84.8977C71.8554 84.9303 71.7566 84.9417 71.659 84.9311Z" fill="#86BCFC"/>
<path d="M69.0355 86.8432C68.9308 86.8448 68.8274 86.8189 68.7357 86.7682C68.6441 86.7175 68.5672 86.6437 68.5129 86.5541C65.5284 81.9924 61.3894 78.3021 56.5164 75.8584C56.3729 75.7867 56.2632 75.6614 56.2112 75.5095C56.1592 75.3577 56.169 75.1915 56.2385 75.0468C56.2719 74.9751 56.3191 74.9107 56.3775 74.8574C56.4359 74.804 56.5043 74.7627 56.5787 74.7359C56.653 74.709 56.732 74.6971 56.811 74.7009C56.89 74.7046 56.9674 74.7239 57.0389 74.7577C62.1434 77.285 66.4692 81.1459 69.5581 85.9315C69.6359 86.0723 69.6562 86.2377 69.6148 86.3932C69.5733 86.5487 69.4733 86.682 69.3357 86.7654C69.2446 86.8182 69.1408 86.8451 69.0355 86.8432Z" fill="#86BCFC"/>
<path d="M111.412 82.9754C118.018 81.3211 122.869 77.9664 122.247 75.4825C121.624 72.9987 115.765 72.3263 109.159 73.9806C102.554 75.635 97.703 78.9896 98.3251 81.4735C98.9471 83.9573 104.806 84.6297 111.412 82.9754Z" fill="#86BCFC"/>
<path d="M63.1023 103.782C67.7781 102.611 71.0643 99.6483 70.4423 97.1645C69.8202 94.6806 65.5254 93.6164 60.8496 94.7874C56.1738 95.9584 52.8876 98.9212 53.5096 101.405C54.1317 103.889 58.4264 104.953 63.1023 103.782Z" fill="#86BCFC"/>
<path d="M66.8713 119.986C68.42 119.599 69.2461 117.57 68.7166 115.455C68.187 113.341 66.5023 111.941 64.9536 112.329C63.4049 112.717 62.5787 114.745 63.1083 116.86C63.6379 118.975 65.3226 120.374 66.8713 119.986Z" fill="#183B59"/>
<path d="M160.606 81.34C159.305 83.9973 156.437 85.1091 152.734 85.0757C141.06 84.9757 121.059 73.5128 115.344 63.3841C113.721 60.5267 113.243 57.825 114.399 55.4124C121.003 42.0705 146.942 16.2318 159.694 23.3808C172.447 30.5298 167.199 67.9648 160.606 81.34Z" fill="#3F8CFF"/>
<path d="M152.733 85.0755C141.059 84.9754 121.057 73.5126 115.342 63.3839C121.235 52.2657 141.726 32.2529 151.899 37.9677C162.261 43.7825 158.07 74.0351 152.733 85.0755Z" fill="#86BCFC"/>
<path d="M63.2405 189.434C72.6449 180.802 76.3708 169.557 71.5624 164.319C66.754 159.08 55.2321 161.832 45.8276 170.465C36.4231 179.098 32.6973 190.342 37.5057 195.58C42.3141 200.819 53.836 198.067 63.2405 189.434Z" fill="#86BCFC"/>
<path d="M60.6716 187.615C70.0761 178.982 73.802 167.737 68.9936 162.499C64.1851 157.261 52.6633 160.013 43.2588 168.645C33.8543 177.278 30.1285 188.523 34.9369 193.761C39.7453 198.999 51.2671 196.248 60.6716 187.615Z" fill="#0C6ED6"/>
<path d="M70.0259 181.259C69.6359 180.905 69.2196 180.582 68.7807 180.292C68.3471 179.991 67.894 179.72 67.4243 179.48C66.5712 179.056 65.6721 178.731 64.7447 178.513C63.2915 178.141 61.7769 178.077 60.2975 178.324C58.843 178.524 57.4565 179.065 56.2505 179.902C57.7292 179.969 59.0522 179.902 60.3753 180.036C61.0313 180.036 61.6761 180.203 62.3099 180.258C62.9436 180.314 63.5885 180.481 64.2111 180.659C64.8337 180.836 65.5787 181.014 66.2569 181.226L67.9579 181.804L69.3032 182.36L70.0259 181.259Z" fill="#183B59"/>
<path d="M73.3394 173.276C73.1059 173.087 72.8613 172.91 72.6167 172.743C72.0168 172.333 71.3803 171.979 70.7154 171.687C70.0261 171.375 69.3072 171.132 68.5696 170.964C67.1164 170.593 65.6018 170.528 64.1223 170.775C62.6709 170.974 61.2875 171.515 60.0864 172.354C61.554 172.42 62.8771 172.354 64.2002 172.487C64.8561 172.487 65.501 172.654 66.1459 172.709C66.7907 172.765 67.4133 172.932 68.036 173.11C68.6586 173.288 69.448 173.477 70.1485 173.71C70.8489 173.944 71.2602 174.066 71.7828 174.255L72.9613 174.733L73.3394 173.276Z" fill="#183B59"/>
<path d="M71.2038 163.948C70.7527 163.784 70.2924 163.646 69.8252 163.536C68.3926 163.177 66.9016 163.117 65.4446 163.358C63.9905 163.554 62.6056 164.1 61.4087 164.948C62.8652 165.004 64.2105 164.948 65.5224 165.082C66.1784 165.082 66.8233 165.237 67.4681 165.304C68.113 165.371 68.7356 165.515 69.3582 165.693C69.9809 165.871 70.37 165.949 70.8592 166.105C71.6152 166.327 72.3601 166.583 73.0828 166.85L71.2038 163.948Z" fill="#183B59"/>
</g>
<circle cx="108" cy="108" r="106" stroke="url(#paint0_linear_14_47)" stroke-width="4"/>
<defs>
<linearGradient id="paint0_linear_14_47" x1="108" y1="-6.87342e-05" x2="225.649" y2="8.26374" gradientUnits="userSpaceOnUse">
<stop stop-color="#FFB546"/>
<stop offset="1" stop-color="#3F8CFF"/>
</linearGradient>
</defs>
</svg>
