<svg width="216" height="216" viewBox="0 0 216 216" fill="none" xmlns="http://www.w3.org/2000/svg">
<mask id="mask0_8_9669" style="mask-type:alpha" maskUnits="userSpaceOnUse" x="2" y="2" width="212" height="212">
<circle cx="107.999" cy="108" r="105.231" fill="#D9D9D9"/>
</mask>
<g mask="url(#mask0_8_9669)">
<rect x="-8.30811" width="227.077" height="227.077" fill="white"/>
<path d="M41.2919 353.366C38.3266 353.366 35.4325 352.457 32.9995 350.762C30.5665 349.066 28.7114 346.666 27.6841 343.885C26.6567 341.103 26.5065 338.073 27.2537 335.204C28.0008 332.334 29.6094 329.762 31.8628 327.835C33.588 325.838 48.8005 306.133 63.3295 214.522C63.5032 212.539 64.0833 210.614 65.0336 208.865C65.9839 207.117 67.2841 205.582 68.8531 204.358C70.4221 203.134 72.2264 202.246 74.1536 201.749C76.0808 201.253 78.0896 201.159 80.0549 201.472C82.0202 201.786 83.8997 202.501 85.5767 203.572C87.2536 204.644 88.692 206.049 89.8021 207.701C90.9122 209.353 91.6703 211.216 92.0292 213.173C92.3881 215.131 92.3401 217.141 91.8882 219.079C75.4713 322.854 56.7649 345.771 49.4841 350.805C47.0772 352.472 44.2195 353.365 41.2919 353.366Z" fill="#0C6ED6"/>
<path d="M158.989 92.1274C157.904 94.8075 155.224 96.1204 151.632 96.3917C140.271 97.238 119.894 87.7112 113.503 78.3255C111.702 75.6779 111.007 73.0304 111.951 70.6432C117.29 57.1017 140.423 29.8993 153.401 35.8346C166.378 41.7698 164.316 78.6184 158.989 92.1274Z" fill="#3F8CFF"/>
<path d="M151.632 96.4681C140.271 97.3145 119.894 87.7876 113.503 78.4019C118.342 67.139 136.647 45.9803 147.01 50.722C157.556 55.4854 155.907 85.2486 151.632 96.4681Z" fill="#86BCFC"/>
<path d="M46.9775 117.453C49.1477 119.352 52.1424 119.276 55.4736 117.854C65.9444 113.384 79.6595 95.5457 81.005 84.2828C81.3956 81.0927 80.7879 78.4343 78.8348 76.6874C67.8649 67.1171 34.814 53.6082 26.0142 64.8385C17.2144 76.0689 36.0076 107.883 46.9775 117.453Z" fill="#3F8CFF"/>
<path d="M55.4737 117.855C65.9445 113.384 79.6596 95.5459 81.0051 84.2829C71.5326 76.5031 45.5454 66.1408 38.5251 75.1142C31.5048 84.0876 46.5111 109.901 55.4737 117.855Z" fill="#0C6ED6"/>
<path d="M186.473 372.605C172.476 375.795 155.755 377.856 135.974 378.789C133.327 378.909 93.7548 378.789 73.1061 362.839C68.6508 359.53 64.9518 355.309 62.2555 350.459C49.4627 326.663 66.2594 291.551 65.0767 234.748C63.9916 185.497 50.9709 179.855 47.9436 127.132C46.1099 95.4915 73.6378 69.7539 105.322 69.7539C111.886 69.0035 118.533 69.4483 124.939 71.0668C145.284 76.3728 159.292 94.2329 175.449 118.647C179.529 124.821 183.75 131.418 188.242 138.33C190.412 141.639 198.712 156.385 208.456 176.567C218.2 196.749 229.181 221.998 236.982 246.879L237.731 249.288C258.271 316.323 253.378 357.36 186.473 372.605Z" fill="#3F8CFF"/>
<path d="M186.473 372.604C172.475 375.794 155.755 377.856 135.974 378.789C133.326 378.908 93.7544 378.789 73.1057 362.839C68.6504 359.529 64.9514 355.309 62.2551 350.458C61.9839 335.647 67.2898 316.604 69.8505 289.326C72.9972 256.351 71.9013 251.349 73.9629 215.911C75.1999 194.633 95.599 179.583 116.768 182.057C121.218 182.067 125.629 182.879 129.789 184.455C142.973 189.587 150.937 202.608 159.824 220.175C162.07 224.624 164.381 229.355 166.844 234.281C169.307 239.207 184.856 277.206 191.258 312.264C196.195 338.978 196.13 359.247 186.473 372.604Z" fill="#86BCFC"/>
<path d="M175.503 118.646L163.99 125.558C158.511 129.28 151.436 131.07 147.508 131.873C138.459 133.707 118.754 136.094 111.94 132.676C105.43 129.421 109.054 93.896 124.961 71.0664C145.338 76.3723 159.346 94.2324 175.503 118.646Z" fill="#0C6ED6"/>
<path d="M148.17 114.914C149.407 123.595 141.356 130.311 132.242 131.613C123.127 132.915 114.458 132.698 113.21 123.963C111.962 115.229 118.635 101.373 127.739 100.092C136.842 98.8118 146.923 106.234 148.17 114.914Z" fill="#3F8CFF"/>
<path d="M143.841 115.652C144.753 122.043 138.828 126.958 132.133 127.913C125.439 128.868 119.113 128.694 118.158 122.303C117.203 115.912 122.14 105.702 128.835 104.747C135.53 103.792 142.886 109.25 143.841 115.652Z" fill="#B0E881"/>
<path d="M127.879 126.369C131.082 125.911 133.112 121.564 132.412 116.657C131.712 111.751 128.547 108.145 125.344 108.602C122.14 109.059 120.11 113.406 120.81 118.313C121.51 123.219 124.675 126.826 127.879 126.369Z" fill="#183B59"/>
<path d="M56.1682 128.021C57.416 136.702 67.0188 140.901 76.1332 139.599C85.2477 138.297 93.4942 135.649 92.2681 126.947C91.0419 118.245 80.7447 106.765 71.652 108.067C62.5592 109.369 54.9312 119.319 56.1682 128.021Z" fill="#0C6ED6"/>
<path d="M60.5413 127.533C61.4528 133.924 68.5165 136.995 75.2005 136.04C81.8844 135.085 87.9716 133.132 87.0602 126.741C86.1487 120.35 78.5967 111.909 71.8693 112.863C65.142 113.818 59.6299 121.132 60.5413 127.533Z" fill="#B0E881"/>
<path d="M70.3253 134.633C73.5289 134.176 75.5584 129.828 74.8584 124.922C74.1583 120.016 70.9939 116.409 67.7903 116.866C64.5868 117.323 62.5572 121.671 63.2572 126.577C63.9572 131.484 67.1217 135.09 70.3253 134.633Z" fill="#183B59"/>
<path d="M103.005 148.35C106.66 147.828 109.184 144.337 108.644 140.552C108.104 136.768 104.704 134.122 101.05 134.643C97.3952 135.165 94.8704 138.656 95.4104 142.441C95.9504 146.226 99.3508 148.871 103.005 148.35Z" fill="#183B59"/>
<path d="M119.883 149.517C119.605 150.274 119.077 150.913 118.385 151.329C117.672 151.737 116.881 151.992 116.063 152.077C114.473 152.224 112.869 152.096 111.322 151.698C109.8 151.342 108.309 150.867 106.862 150.276C105.419 149.669 104.03 149.018 102.63 148.258L103.932 148.03C102.928 149.132 101.84 150.155 100.677 151.09C99.5099 152.023 98.2522 152.837 96.923 153.52C95.5876 154.23 94.1424 154.711 92.6479 154.942C91.177 155.176 89.6697 154.98 88.3076 154.378C89.7096 154.572 91.1375 154.43 92.4742 153.965C93.7786 153.518 95.0189 152.901 96.1634 152.132C97.306 151.362 98.3936 150.513 99.4186 149.593C100.464 148.681 101.453 147.706 102.381 146.674L102.934 146.044L103.672 146.457C104.942 147.173 106.298 147.856 107.654 148.464C108.999 149.093 110.375 149.65 111.777 150.135C113.148 150.632 114.578 150.942 116.031 151.057C116.751 151.152 117.484 151.06 118.158 150.79C118.832 150.52 119.426 150.082 119.883 149.517Z" fill="#183B59"/>
<path d="M116.247 142.04C116.144 142.041 116.043 142.011 115.957 141.955C115.87 141.9 115.801 141.82 115.759 141.725C115.708 141.597 115.709 141.454 115.762 141.327C115.815 141.199 115.915 141.097 116.041 141.042C122.028 138.729 128.384 137.523 134.802 137.483C134.939 137.489 135.069 137.547 135.164 137.646C135.259 137.745 135.312 137.877 135.312 138.015C135.311 138.083 135.296 138.15 135.268 138.213C135.241 138.276 135.201 138.332 135.152 138.38C135.102 138.427 135.044 138.464 134.98 138.489C134.917 138.514 134.849 138.526 134.78 138.525C128.507 138.562 122.293 139.742 116.443 142.008L116.247 142.04Z" fill="#86BCFC"/>
<path d="M136.593 150.21H136.397C130.53 147.994 124.31 146.858 118.038 146.858C117.969 146.862 117.9 146.852 117.835 146.829C117.769 146.805 117.71 146.768 117.66 146.72C117.61 146.672 117.57 146.614 117.544 146.55C117.518 146.486 117.505 146.417 117.506 146.348C117.504 146.211 117.554 146.079 117.647 145.98C117.741 145.881 117.869 145.822 118.006 145.816C124.423 145.805 130.789 146.967 136.788 149.245C136.852 149.271 136.909 149.309 136.958 149.358C137.007 149.407 137.045 149.464 137.071 149.528C137.098 149.591 137.111 149.659 137.111 149.728C137.111 149.797 137.097 149.865 137.07 149.928C137.026 150.016 136.958 150.09 136.873 150.14C136.788 150.19 136.691 150.215 136.593 150.21Z" fill="#86BCFC"/>
<path d="M137.776 144.688C137.707 144.698 137.638 144.698 137.569 144.688C129.974 141.541 117.235 144.688 117.105 144.688C116.971 144.721 116.83 144.699 116.712 144.628C116.594 144.557 116.509 144.442 116.476 144.308C116.458 144.242 116.454 144.173 116.464 144.105C116.473 144.037 116.496 143.971 116.532 143.913C116.567 143.854 116.614 143.803 116.67 143.763C116.726 143.722 116.789 143.694 116.856 143.679C117.387 143.549 130.104 140.424 137.971 143.679C138.034 143.704 138.092 143.741 138.14 143.789C138.189 143.836 138.227 143.893 138.254 143.956C138.28 144.018 138.293 144.086 138.293 144.154C138.293 144.222 138.279 144.289 138.253 144.351C138.216 144.449 138.151 144.533 138.066 144.593C137.981 144.653 137.88 144.686 137.776 144.688Z" fill="#86BCFC"/>
<path d="M68.8525 147.878C68.7403 147.88 68.6306 147.845 68.5403 147.778C68.4501 147.711 68.3844 147.617 68.3534 147.509C68.3124 147.378 68.3247 147.236 68.3877 147.114C68.4507 146.992 68.5592 146.9 68.6898 146.858C74.8634 145.102 81.3051 144.484 87.7 145.035C87.8365 145.051 87.9609 145.121 88.0463 145.229C88.1317 145.336 88.171 145.474 88.1557 145.61C88.149 145.678 88.1287 145.744 88.0959 145.805C88.0631 145.865 88.0186 145.918 87.9649 145.96C87.9112 146.003 87.8495 146.034 87.7835 146.052C87.7175 146.07 87.6485 146.075 87.5807 146.066C81.3312 145.525 75.0355 146.132 69.0044 147.856L68.8525 147.878Z" fill="#86BCFC"/>
<path d="M70.4042 159.662C70.3258 159.659 70.2488 159.64 70.1778 159.607C70.1069 159.573 70.0436 159.525 69.9919 159.467C69.9072 159.357 69.8688 159.218 69.885 159.08C69.9012 158.942 69.9708 158.816 70.0787 158.729C75.2026 154.87 80.9862 151.976 87.1467 150.189C87.2154 150.161 87.2895 150.147 87.3639 150.15C87.4384 150.152 87.5114 150.171 87.5781 150.204C87.6448 150.237 87.7037 150.284 87.7506 150.342C87.7976 150.399 87.8316 150.467 87.8504 150.539C87.8692 150.611 87.8724 150.686 87.8596 150.759C87.8469 150.833 87.8185 150.903 87.7765 150.964C87.7344 151.026 87.6797 151.077 87.616 151.116C87.5523 151.154 87.481 151.179 87.4071 151.188C81.3855 152.934 75.7336 155.765 70.7297 159.542C70.6372 159.617 70.5228 159.659 70.4042 159.662Z" fill="#86BCFC"/>
<path d="M67.7242 154.681C67.6471 154.679 67.5713 154.661 67.502 154.627C67.4327 154.594 67.3715 154.545 67.3227 154.486C67.2788 154.432 67.2459 154.371 67.2259 154.305C67.206 154.239 67.1993 154.169 67.2063 154.101C67.2134 154.032 67.2341 153.966 67.2671 153.905C67.3001 153.844 67.3448 153.791 67.3987 153.748C74.0392 148.398 87.1142 147.845 87.6675 147.823C87.805 147.82 87.9383 147.871 88.0394 147.964C88.1406 148.057 88.2017 148.185 88.2101 148.323C88.213 148.459 88.1624 148.591 88.0691 148.69C87.9758 148.79 87.8472 148.849 87.711 148.854C87.5699 148.854 74.419 149.429 68.0497 154.562C67.9572 154.636 67.8428 154.678 67.7242 154.681Z" fill="#86BCFC"/>
<path d="M104.063 85.3562C103.906 85.3451 103.76 85.2728 103.657 85.155C103.553 85.0373 103.5 84.8835 103.509 84.7269C104.16 73.7895 110.432 58.7506 110.497 58.5987C110.561 58.4581 110.677 58.3472 110.82 58.2888C110.963 58.2303 111.123 58.2286 111.267 58.284C111.413 58.3461 111.527 58.4632 111.586 58.6096C111.645 58.7561 111.644 58.9199 111.582 59.0653C111.528 59.2063 105.321 74.0608 104.692 84.8028C104.681 84.9593 104.609 85.105 104.491 85.2086C104.373 85.3121 104.219 85.3652 104.063 85.3562Z" fill="#86BCFC"/>
<path d="M107.177 85.9535H107.079C107.001 85.9481 106.926 85.9271 106.856 85.8916C106.787 85.8562 106.726 85.807 106.676 85.7472C106.626 85.6873 106.589 85.618 106.567 85.5434C106.545 85.4689 106.538 85.3906 106.547 85.3133C107.269 79.806 109.47 74.5974 112.917 70.2418C112.965 70.182 113.025 70.1323 113.092 70.0955C113.16 70.0588 113.234 70.0357 113.311 70.0276C113.387 70.0196 113.465 70.0267 113.539 70.0485C113.613 70.0704 113.681 70.1066 113.741 70.155C113.801 70.2035 113.851 70.2632 113.888 70.3309C113.924 70.3986 113.947 70.4728 113.955 70.5494C113.963 70.6259 113.956 70.7034 113.935 70.7772C113.913 70.851 113.876 70.9198 113.828 70.9797C110.556 75.172 108.449 80.154 107.719 85.4218C107.707 85.5604 107.645 85.6901 107.546 85.7875C107.446 85.8849 107.316 85.9437 107.177 85.9535Z" fill="#86BCFC"/>
<path d="M81.5371 89.0353C81.4007 89.0351 81.2685 88.9874 81.1636 88.9002C81.0586 88.813 80.9873 88.692 80.962 88.5579C78.8679 78.0219 70.795 64.1007 70.7082 63.9162C70.6322 63.7788 70.6124 63.6173 70.6528 63.4656C70.6933 63.3139 70.7909 63.1837 70.9252 63.1024C70.9921 63.0636 71.0661 63.0385 71.1427 63.0284C71.2194 63.0184 71.2972 63.0236 71.3719 63.0437C71.4465 63.0639 71.5164 63.0987 71.5776 63.146C71.6387 63.1933 71.6899 63.2522 71.7282 63.3194C71.815 63.4605 80.0289 77.5228 82.123 88.2758C82.1516 88.4311 82.1174 88.5915 82.0279 88.7216C81.9384 88.8518 81.8009 88.9412 81.6456 88.9702L81.5371 89.0353Z" fill="#86BCFC"/>
<path d="M78.5204 90.0336C78.387 90.0345 78.2573 89.9898 78.1527 89.9069C78.0481 89.824 77.975 89.708 77.9453 89.5779C76.5328 84.4494 73.7844 79.7878 69.981 76.0689C69.9247 76.0155 69.8795 75.9515 69.8479 75.8806C69.8164 75.8097 69.7991 75.7332 69.7971 75.6556C69.7951 75.5781 69.8084 75.5008 69.8362 75.4284C69.864 75.356 69.9058 75.2897 69.9593 75.2334C70.0127 75.1771 70.0767 75.1319 70.1476 75.1004C70.2185 75.0688 70.2949 75.0515 70.3725 75.0495C70.4501 75.0475 70.5274 75.0608 70.5998 75.0886C70.6723 75.1164 70.7385 75.1583 70.7948 75.2117C74.7826 79.0795 77.6507 83.9533 79.0955 89.3175C79.1314 89.4685 79.1058 89.6277 79.0244 89.7599C78.9431 89.8922 78.8125 89.9867 78.6615 90.0227L78.5204 90.0336Z" fill="#86BCFC"/>
<path d="M126.147 86.6462C132.726 85.7075 137.773 82.9411 137.42 80.4672C137.067 77.9933 131.448 76.7488 124.869 77.6875C118.289 78.6262 113.242 81.3927 113.595 83.8665C113.948 86.3404 119.568 87.5849 126.147 86.6462Z" fill="#86BCFC"/>
<path d="M70.0712 107.251C76.6504 106.312 81.6977 103.546 81.3448 101.072C80.9918 98.5978 75.3722 97.3533 68.793 98.292C62.2138 99.2307 57.1665 101.997 57.5195 104.471C57.8724 106.945 63.492 108.189 70.0712 107.251Z" fill="#86BCFC"/>
<path d="M117.275 194.133C123.481 183.33 123.635 171.771 117.618 168.314C111.601 164.856 101.692 170.811 95.4853 181.614C89.2786 192.416 89.1248 203.976 95.1418 207.433C101.159 210.89 111.068 204.935 117.275 194.133Z" fill="#86BCFC"/>
<path d="M114.355 193.202C120.562 182.4 120.715 170.84 114.698 167.383C108.681 163.926 98.7721 169.88 92.5654 180.683C86.3587 191.486 86.2049 203.045 92.2219 206.502C98.2389 209.959 108.148 204.005 114.355 193.202Z" fill="#0C6ED6"/>
<path d="M121.185 184.585C120.716 184.376 120.234 184.198 119.741 184.053C119.252 183.901 118.751 183.785 118.244 183.706C117.322 183.558 116.386 183.518 115.455 183.587C114.007 183.659 112.588 184.028 111.289 184.672C110.01 185.291 108.895 186.201 108.034 187.33C109.423 186.961 110.638 186.495 111.907 186.245C112.526 186.083 113.166 186.017 113.774 185.887C114.381 185.757 115.021 185.714 115.662 185.692C116.302 185.67 117.04 185.627 117.723 185.627H119.481L120.902 185.735L121.185 184.585Z" fill="#183B59"/>
<path d="M121.955 176.187C121.684 176.079 121.412 175.981 121.119 175.894C120.442 175.693 119.749 175.551 119.047 175.471C116.861 175.235 114.652 175.61 112.667 176.556C111.389 177.181 110.275 178.095 109.412 179.225C110.79 178.856 112.005 178.39 113.274 178.14C113.893 177.978 114.533 177.902 115.152 177.771C115.77 177.641 116.399 177.598 117.029 177.587C117.658 177.576 118.45 177.511 119.199 177.522H120.881C121.293 177.522 121.705 177.554 122.118 177.619L121.955 176.187Z" fill="#183B59"/>
<path d="M117.224 168.136C116.758 168.109 116.291 168.109 115.825 168.136C114.389 168.205 112.985 168.574 111.701 169.221C110.417 169.835 109.3 170.751 108.446 171.89C109.824 171.511 111.04 171.055 112.32 170.805C112.938 170.632 113.568 170.567 114.186 170.436C114.805 170.306 115.423 170.263 116.063 170.241C116.704 170.219 117.072 170.176 117.582 170.187C118.342 170.187 119.112 170.187 119.894 170.187L117.224 168.136Z" fill="#183B59"/>
<path d="M148.886 273.094C136.636 273.094 123.604 265.726 111.809 252.022C100.635 238.971 92.8135 223.391 89.0231 206.634C88.6291 204.77 88.6061 202.847 88.9553 200.974C89.3046 199.102 90.0193 197.316 91.0586 195.719C93.1576 192.495 96.4514 190.237 100.215 189.441C102.079 189.047 104.002 189.024 105.875 189.373C107.748 189.723 109.533 190.437 111.13 191.477C114.354 193.576 116.613 196.869 117.408 200.633C120.21 212.647 125.859 223.812 133.879 233.185C141.79 242.311 147.519 244.036 148.864 244.036C149.624 243.298 155.277 236.864 154.463 209.987C154.405 208.084 154.723 206.188 155.398 204.408C156.073 202.628 157.092 200.998 158.397 199.611C159.701 198.225 161.266 197.109 163.003 196.328C164.739 195.546 166.612 195.114 168.514 195.056C170.417 194.999 172.313 195.316 174.093 195.991C175.874 196.666 177.503 197.685 178.89 198.99C180.276 200.295 181.392 201.86 182.174 203.596C182.955 205.332 183.387 207.205 183.445 209.108C183.998 227.413 182.132 241.388 177.727 251.827C170.771 268.287 158.923 272.041 152.477 272.822C151.287 272.984 150.087 273.074 148.886 273.094Z" fill="#0C6ED6"/>
<path d="M237.037 246.878C213.816 236.603 199.667 199.982 208.51 176.566C218.167 196.597 229.235 221.998 237.037 246.878Z" fill="#0C6ED6"/>
<path d="M115.282 120.057C134.097 123.431 144.46 112.462 144.46 112.462C144.46 112.462 138.199 99.3541 128.542 101.969C114.317 105.832 115.282 120.057 115.282 120.057Z" fill="#3F8CFF"/>
<path d="M89.2194 124.082C71.4136 131.005 60.5413 127.533 59.1307 122.227C58.1759 118.668 63.9593 109.206 73.9309 109.933C88.6335 110.986 89.2194 124.082 89.2194 124.082Z" fill="#0C6ED6"/>
</g>
<circle cx="108" cy="108" r="106" stroke="url(#paint0_linear_8_9669)" stroke-width="4"/>
<defs>
<linearGradient id="paint0_linear_8_9669" x1="108" y1="-6.87342e-05" x2="225.649" y2="8.26374" gradientUnits="userSpaceOnUse">
<stop stop-color="#FFB546"/>
<stop offset="1" stop-color="#3F8CFF"/>
</linearGradient>
</defs>
</svg>
