<svg width="216" height="216" viewBox="0 0 216 216" fill="none" xmlns="http://www.w3.org/2000/svg">
<mask id="mask0_8_8961" style="mask-type:alpha" maskUnits="userSpaceOnUse" x="2" y="2" width="212" height="212">
<circle cx="108" cy="108" r="105.231" fill="#D9D9D9"/>
</mask>
<g mask="url(#mask0_8_8961)">
<rect x="-8.30737" width="227.077" height="227.077" fill="white"/>
<path d="M243.853 371.628C242.617 371.628 241.455 371.628 240.243 371.553C237.648 371.459 235.097 370.855 232.735 369.775C230.373 368.695 228.247 367.16 226.479 365.258C224.71 363.356 223.333 361.125 222.427 358.691C221.521 356.257 221.103 353.669 221.197 351.073C221.291 348.478 221.896 345.926 222.976 343.565C224.056 341.203 225.591 339.077 227.492 337.308C229.394 335.54 231.626 334.163 234.059 333.257C236.493 332.351 239.082 331.933 241.677 332.027C264.703 332.855 286.086 320.013 292.513 301.461C298.149 285.183 290.115 268.09 269.895 253.32C227.488 222.42 207.75 190.891 211.223 159.781C216.031 116.584 264.234 95.2508 266.286 94.3733C271.094 92.3052 276.526 92.2276 281.391 94.1575C286.256 96.0874 290.158 99.8674 292.241 104.669C294.309 109.477 294.387 114.909 292.457 119.774C290.527 124.64 286.747 128.541 281.945 130.624C273.862 134.209 252.282 147.31 250.465 164.218C248.809 179.742 263.962 200.062 293.168 221.345C327.639 246.571 341.346 281.29 329.877 314.402C318.073 348.478 283.021 371.628 243.853 371.628Z" fill="#0C6ED6"/>
<path d="M172.684 130.501C170.039 132.454 166.64 132.095 163.007 130.18C151.524 124.123 137.595 102.617 137.051 89.7014C136.903 85.9935 137.83 83.089 140.191 81.3463C153.527 71.4584 192.287 59.1975 201.248 72.7562C210.209 86.3149 186.045 120.638 172.684 130.501Z" fill="#3F8CFF"/>
<path d="M163.034 130.18C151.552 124.124 137.622 102.618 137.078 89.7016C148.548 81.7543 179.003 72.398 186.159 83.2004C193.476 94.213 173.923 121.973 163.034 130.18Z" fill="#86BCFC"/>
<path d="M47.2445 88.9352C48.1962 92.087 51.1378 93.8791 55.2042 94.4724C68.0213 96.4623 92.0363 87.5262 100.144 77.453C102.443 74.6102 103.469 71.681 102.616 68.8753C97.8083 53.0054 74.0404 20.0048 58.7638 25.542C43.4871 31.0792 42.4365 73.0776 47.2445 88.9352Z" fill="#3F8CFF"/>
<path d="M55.2677 94.472C68.0848 96.4619 92.0998 87.5258 100.208 77.4526C95.7583 64.2276 76.922 38.5193 64.7229 42.9441C52.2519 47.4431 51.362 81.3706 55.2677 94.472Z" fill="#0C6ED6"/>
<path d="M252.712 316.862C253.478 351.37 227.387 380.688 202.717 386.633C198.601 387.621 194.374 388.536 190.06 389.34C146.604 397.608 94.6183 397.027 62.6807 385.533C57.1536 383.435 51.9583 380.55 47.2557 376.967C22.1406 358.267 -6.53402 314.007 -3.07328 239.947C-2.67777 231.592 0.0784588 218.095 3.9965 202.732C9.84267 179.792 18.2844 152.687 25.2677 132.368C27.7396 125.199 30.0138 118.871 31.942 113.828C46.8355 75.1172 80.0091 60.3225 115.988 69.4811C128.427 72.475 139.82 78.7887 148.952 87.7488C165.366 104.113 172.238 128.289 168.258 154.034C167.607 158.323 166.67 162.564 165.452 166.728C163.685 172.846 159.495 185.799 159.272 198.641C159.05 212.434 163.4 226.116 180.197 231.134C191.822 234.44 203.053 238.999 213.692 244.73C246.841 263.097 252.057 287.68 252.712 316.862Z" fill="#3F8CFF"/>
<path d="M190.062 389.34C146.605 397.609 94.6196 397.028 62.6819 385.533C57.1548 383.435 51.9595 380.55 47.2569 376.968C-15.7779 282.181 25.9858 184.934 74.7327 187.505C121.7 189.977 129.4 298.681 145.591 335.822C155.714 359.046 178.295 379.675 190.062 389.34Z" fill="#86BCFC"/>
<path d="M18.5839 388.079C16.2308 388.082 13.9043 387.581 11.7614 386.609C9.61856 385.637 7.70922 384.216 6.16229 382.443C4.73159 380.812 3.63632 378.915 2.93901 376.861C2.2417 374.806 1.95603 372.635 2.09836 370.47C2.2407 368.305 2.80824 366.19 3.76852 364.244C4.72881 362.299 6.06302 360.562 7.69492 359.132C8.06572 358.811 46.7147 324.216 44.0821 288.175C42.8461 270.562 31.1661 254.457 9.47473 240.318C7.65585 239.135 6.08823 237.605 4.86174 235.816C3.63524 234.026 2.77397 232.012 2.32732 229.889C1.88066 227.766 1.85741 225.576 2.25886 223.444C2.66031 221.312 3.47857 219.28 4.66677 217.465C5.85045 215.647 7.38089 214.081 9.17053 212.855C10.9602 211.629 12.9739 210.769 15.0965 210.322C17.2191 209.876 19.4089 209.852 21.5406 210.253C23.6724 210.653 25.7042 211.47 27.52 212.657C58.3576 232.766 75.0062 257.424 77.0209 285.938C80.7288 338.405 31.5369 382.146 29.4357 383.988C26.4356 386.625 22.5781 388.079 18.5839 388.079Z" fill="#0C6ED6"/>
<path d="M168.235 154.071C168.025 154.837 167.778 155.604 167.531 156.358L167.333 156.939C159.917 157.94 151.723 156.172 147.323 154.986C137.163 152.267 115.867 144.678 110.651 137.682C105.707 131.094 121.515 102.791 148.966 87.7363C165.343 104.15 172.215 128.326 168.235 154.071Z" fill="#0C6ED6"/>
<path d="M156.614 138.029C153.462 147.533 141.844 150.252 131.894 146.952C121.945 143.652 113.219 138.993 116.383 129.488C119.547 119.983 133.39 109.206 143.339 112.518C153.289 115.83 159.778 128.512 156.614 138.029Z" fill="#3F8CFF"/>
<path d="M151.822 136.57C149.499 143.553 140.97 145.555 133.666 143.133C126.361 140.71 119.946 137.287 122.27 130.303C124.594 123.32 134.766 115.398 142.046 117.832C149.326 120.267 154.146 129.599 151.822 136.57Z" fill="#3F8CFF"/>
<path d="M56.1695 104.645C53.0054 114.15 60.6808 123.284 70.6304 126.584C80.58 129.884 90.406 131.392 93.5083 121.887C96.6106 112.383 92.0251 95.462 82.0755 92.1496C72.1259 88.8372 59.3336 95.1283 56.1695 104.645Z" fill="#0C6ED6"/>
<path d="M60.8803 106.35C58.5567 113.346 64.1927 120.057 71.4974 122.418C78.802 124.779 85.983 125.953 88.3066 118.969C90.6303 111.986 87.219 99.5522 79.9144 97.1174C72.6097 94.6825 63.1916 99.3668 60.8803 106.35Z" fill="#3F8CFF"/>
<path d="M107.568 143.158C108.942 139.025 106.822 134.6 102.831 133.273C98.8413 131.947 94.4928 134.221 93.1189 138.354C91.7449 142.487 93.8658 146.912 97.8559 148.239C101.846 149.565 106.195 147.291 107.568 143.158Z" fill="#183B59"/>
<path d="M114.508 158.014C112.856 158.973 110.965 159.441 109.057 159.361C107.072 159.225 105.175 158.488 103.619 157.248C102.084 156.034 100.778 154.557 99.7624 152.885C98.7765 151.254 97.9882 149.511 97.4141 147.694L99.3916 148.188C97.9928 149.534 96.3912 150.652 94.6455 151.501C92.8873 152.375 90.9482 152.823 88.9847 152.811C87.0205 152.78 85.1101 152.164 83.497 151.043C81.9852 149.958 80.7213 148.563 79.7891 146.952C81.0493 148.202 82.4962 149.249 84.0779 150.054C85.584 150.795 87.2622 151.115 88.9353 150.981C90.594 150.824 92.2018 150.323 93.6567 149.511C95.1361 148.716 96.4966 147.717 97.6984 146.544L99.095 145.135L99.6759 147.051C100.189 148.702 100.877 150.293 101.728 151.797C102.539 153.313 103.582 154.693 104.818 155.888C106.037 157.071 107.56 157.892 109.218 158.261C110.977 158.585 112.787 158.501 114.508 158.014Z" fill="#183B59"/>
<path d="M136.014 157.718C135.865 157.727 135.719 157.679 135.606 157.582C130.369 152.719 124.293 148.849 117.672 146.161C117.599 146.135 117.532 146.095 117.475 146.042C117.418 145.99 117.373 145.927 117.34 145.857C117.308 145.787 117.29 145.711 117.288 145.634C117.285 145.556 117.298 145.479 117.326 145.407C117.35 145.333 117.39 145.266 117.442 145.208C117.494 145.15 117.557 145.103 117.628 145.071C117.698 145.038 117.775 145.021 117.853 145.019C117.93 145.018 118.008 145.032 118.08 145.061C124.854 147.8 131.07 151.754 136.421 156.729C136.477 156.784 136.521 156.849 136.551 156.922C136.581 156.994 136.596 157.071 136.596 157.149C136.596 157.227 136.581 157.304 136.551 157.377C136.521 157.449 136.477 157.514 136.421 157.569C136.367 157.62 136.303 157.659 136.233 157.685C136.162 157.71 136.088 157.721 136.014 157.718Z" fill="#86BCFC"/>
<path d="M128.35 168.878C128.235 168.879 128.123 168.847 128.027 168.785C127.93 168.724 127.853 168.636 127.806 168.532C124.679 162.1 120.402 156.295 115.186 151.402C115.131 151.347 115.088 151.283 115.058 151.212C115.028 151.141 115.013 151.065 115.013 150.987C115.013 150.91 115.028 150.834 115.058 150.763C115.088 150.692 115.131 150.627 115.186 150.573C115.242 150.518 115.307 150.474 115.379 150.444C115.451 150.414 115.529 150.399 115.607 150.399C115.685 150.399 115.762 150.414 115.834 150.444C115.906 150.474 115.972 150.518 116.027 150.573C121.363 155.568 125.737 161.5 128.93 168.075C128.964 168.145 128.983 168.22 128.986 168.297C128.99 168.374 128.978 168.451 128.952 168.524C128.925 168.596 128.885 168.663 128.832 168.719C128.78 168.776 128.716 168.822 128.646 168.854C128.551 168.885 128.449 168.894 128.35 168.878Z" fill="#86BCFC"/>
<path d="M133.641 165.207C133.528 165.209 133.417 165.177 133.322 165.115C133.228 165.054 133.153 164.965 133.109 164.861C129.29 156.345 116.226 148.93 116.09 148.93C115.955 148.852 115.855 148.724 115.814 148.574C115.772 148.423 115.791 148.263 115.867 148.126C115.945 147.991 116.073 147.892 116.223 147.85C116.374 147.808 116.535 147.828 116.671 147.904C117.227 148.213 130.205 155.53 134.185 164.404C134.247 164.547 134.251 164.709 134.196 164.854C134.14 165 134.03 165.118 133.888 165.183C133.808 165.208 133.724 165.217 133.641 165.207Z" fill="#86BCFC"/>
<path d="M83.0017 135.334C82.9363 135.346 82.8693 135.346 82.8039 135.334C76.0398 133.066 68.9215 132.04 61.7923 132.306C61.6369 132.316 61.4837 132.265 61.3658 132.163C61.2478 132.061 61.1746 131.917 61.162 131.762C61.1551 131.605 61.2092 131.452 61.3129 131.334C61.4166 131.217 61.5619 131.144 61.7182 131.131C69.0202 130.843 76.3133 131.895 83.2365 134.234C83.3836 134.287 83.5037 134.396 83.5708 134.537C83.6379 134.678 83.6466 134.84 83.595 134.988C83.5442 135.1 83.4598 135.193 83.3535 135.255C83.2472 135.317 83.1243 135.345 83.0017 135.334Z" fill="#86BCFC"/>
<path d="M60.2106 145.703C60.0994 145.704 59.9901 145.674 59.8959 145.614C59.8017 145.555 59.7265 145.47 59.6792 145.37C59.6457 145.299 59.6266 145.223 59.6228 145.145C59.619 145.067 59.6306 144.989 59.657 144.915C59.6834 144.842 59.7241 144.774 59.7767 144.716C59.8293 144.659 59.8927 144.612 59.9634 144.579C66.6947 141.678 73.8993 140.032 81.2222 139.721C81.3769 139.727 81.5241 139.789 81.6358 139.896C81.7474 140.003 81.8158 140.148 81.8279 140.302C81.828 140.459 81.7676 140.609 81.6593 140.722C81.551 140.835 81.4033 140.901 81.247 140.908C74.1065 141.215 67.0822 142.823 60.5196 145.654C60.4235 145.7 60.3162 145.717 60.2106 145.703Z" fill="#86BCFC"/>
<path d="M58.6397 139.475C58.5271 139.475 58.4169 139.442 58.3225 139.381C58.2282 139.319 58.1537 139.232 58.1082 139.129C58.0732 139.059 58.0529 138.984 58.0483 138.906C58.0438 138.829 58.0552 138.751 58.0819 138.678C58.1085 138.605 58.1498 138.538 58.2032 138.482C58.2566 138.425 58.3211 138.381 58.3925 138.35C67.1803 134.21 81.8019 137.114 82.4199 137.238C82.4962 137.254 82.5686 137.285 82.6329 137.329C82.6972 137.373 82.7522 137.43 82.7947 137.495C82.8371 137.561 82.8663 137.634 82.8805 137.71C82.8946 137.787 82.8935 137.866 82.8772 137.942C82.8625 138.018 82.8328 138.09 82.7898 138.154C82.7469 138.219 82.6916 138.274 82.6271 138.316C82.5627 138.359 82.4904 138.388 82.4145 138.402C82.3386 138.417 82.2606 138.416 82.185 138.4C82.0367 138.4 67.3533 135.446 58.8869 139.413C58.8102 139.452 58.7257 139.473 58.6397 139.475Z" fill="#86BCFC"/>
<path d="M130.897 85.8081C130.78 85.809 130.665 85.7792 130.563 85.7216C130.487 85.678 130.42 85.6197 130.366 85.5501C130.312 85.4804 130.272 85.4008 130.249 85.3158C130.226 85.2308 130.221 85.142 130.232 85.0547C130.243 84.9674 130.272 84.8832 130.316 84.807C136.496 73.9675 150.574 61.8425 150.722 61.7189C150.788 61.6607 150.865 61.6163 150.948 61.5885C151.032 61.5606 151.12 61.5498 151.208 61.5567C151.295 61.5636 151.381 61.5881 151.459 61.6287C151.537 61.6694 151.606 61.7253 151.662 61.7931C151.778 61.9281 151.837 62.1036 151.826 62.2816C151.814 62.4597 151.733 62.626 151.6 62.7448C151.451 62.8561 137.584 74.845 131.478 85.4744C131.418 85.5755 131.333 85.6593 131.232 85.7178C131.13 85.7763 131.015 85.8074 130.897 85.8081Z" fill="#86BCFC"/>
<path d="M133.774 87.9956C133.647 87.9995 133.522 87.965 133.415 87.8968C133.266 87.8003 133.16 87.6493 133.121 87.4761C133.082 87.3028 133.112 87.1211 133.205 86.9698C136.737 81.7211 141.629 77.5303 147.357 74.8448C147.437 74.8059 147.524 74.7837 147.613 74.7795C147.702 74.7754 147.79 74.7893 147.874 74.8205C147.957 74.8517 148.033 74.8996 148.097 74.9611C148.161 75.0227 148.212 75.0967 148.247 75.1786C148.318 75.3411 148.324 75.5252 148.261 75.6915C148.199 75.8578 148.074 75.9931 147.913 76.0685C142.433 78.6693 137.741 82.6786 134.317 87.6866C134.259 87.7786 134.179 87.8549 134.084 87.9088C133.989 87.9627 133.883 87.9925 133.774 87.9956Z" fill="#86BCFC"/>
<path d="M106.065 78.1077C106.008 78.119 105.949 78.119 105.892 78.1077C105.806 78.0848 105.726 78.0452 105.656 77.991C105.586 77.9368 105.527 77.8692 105.484 77.7921C105.44 77.715 105.412 77.63 105.401 77.542C105.391 77.454 105.398 77.3648 105.422 77.2796C108.698 65.476 107.499 47.1836 107.486 46.9982C107.48 46.9105 107.49 46.8223 107.518 46.7387C107.545 46.6552 107.589 46.5779 107.646 46.5112C107.704 46.4446 107.774 46.39 107.852 46.3506C107.931 46.3111 108.017 46.2876 108.104 46.2813C108.282 46.2743 108.455 46.3358 108.589 46.4531C108.722 46.5705 108.806 46.7346 108.821 46.9116C108.821 47.097 110.057 65.612 106.72 77.6504C106.673 77.786 106.585 77.9033 106.467 77.9854C106.349 78.0676 106.209 78.1104 106.065 78.1077Z" fill="#86BCFC"/>
<path d="M102.493 77.6013H102.333C102.16 77.5574 102.011 77.4473 101.918 77.2947C101.826 77.1421 101.797 76.9592 101.838 76.7855C103 70.8393 102.574 64.6917 100.602 58.9628C100.542 58.7955 100.55 58.6112 100.624 58.4495C100.697 58.2877 100.832 58.1614 100.998 58.0976C101.081 58.0663 101.17 58.0521 101.259 58.0557C101.348 58.0594 101.436 58.0809 101.517 58.1189C101.597 58.1569 101.669 58.2107 101.729 58.2771C101.788 58.3435 101.834 58.4211 101.863 58.5054C103.96 64.4549 104.413 70.8599 103.173 77.0451C103.144 77.2032 103.06 77.3459 102.935 77.4477C102.811 77.5496 102.654 77.604 102.493 77.6013Z" fill="#86BCFC"/>
<path d="M160.384 108.519C161.282 105.817 156.187 101.692 149.003 99.3034C141.82 96.9152 135.268 97.1688 134.37 99.8699C133.472 102.571 138.568 106.697 145.751 109.085C152.935 111.473 159.486 111.22 160.384 108.519Z" fill="#86BCFC"/>
<path d="M96.7796 87.3799C97.6776 84.6788 92.5822 80.553 85.3986 78.1648C78.2151 75.7765 71.6637 76.0301 70.7657 78.7313C69.8676 81.4324 74.9631 85.5581 82.1466 87.9464C89.3302 90.3347 95.8816 90.081 96.7796 87.3799Z" fill="#86BCFC"/>
<path d="M86.3135 118.364C85.3455 115.736 84.1026 113.217 82.6056 110.85C81.1267 108.753 79.1523 107.055 76.8583 105.906C74.586 104.795 72.0344 104.386 69.5289 104.731C66.8296 105.112 64.336 106.388 62.4468 108.353C62.9271 106.861 63.7649 105.509 64.8872 104.414C66.0095 103.32 67.3824 102.517 68.8862 102.074C72.0158 101.047 75.4234 101.286 78.3785 102.742C81.2807 104.177 83.6083 106.557 84.9786 109.49C86.2066 112.276 86.6674 115.34 86.3135 118.364Z" fill="#183B59"/>
<path d="M122.812 130.501C124.344 127.865 126.555 125.689 129.214 124.198C132.062 122.659 135.352 122.145 138.533 122.739C141.77 123.339 144.641 125.185 146.53 127.881C147.471 129.136 148.09 130.602 148.333 132.151C148.577 133.7 148.437 135.285 147.927 136.768C147.596 134.061 146.364 131.545 144.429 129.624C142.626 127.852 140.337 126.656 137.854 126.188C135.328 125.734 132.729 125.912 130.289 126.707C127.667 127.697 125.16 128.97 122.812 130.501Z" fill="#183B59"/>
<path d="M213.693 244.717C199.22 246.819 167.393 249.921 157.951 238.538C148.508 227.154 149.88 215.202 159.273 198.628C159.051 212.421 163.401 226.104 180.198 231.122C191.823 234.427 203.053 238.986 213.693 244.717Z" fill="#0C6ED6"/>
<path d="M30.3503 175.936C22.8526 186.047 13.9838 195.066 3.99927 202.732C9.84544 179.792 18.2872 152.687 25.2705 132.368C34.256 149.128 40.7078 161.203 30.3503 175.936Z" fill="#0C6ED6"/>
</g>
<circle cx="108" cy="108" r="106" stroke="url(#paint0_linear_8_8961)" stroke-width="4"/>
<defs>
<linearGradient id="paint0_linear_8_8961" x1="108" y1="-6.87342e-05" x2="225.649" y2="8.26374" gradientUnits="userSpaceOnUse">
<stop stop-color="#FFB546"/>
<stop offset="1" stop-color="#3F8CFF"/>
</linearGradient>
</defs>
</svg>
