<svg width="24" height="37" viewBox="0 0 24 37" fill="none" xmlns="http://www.w3.org/2000/svg">
<path d="M7.63636 25.5341V24.9545C7.64773 22.9659 7.82386 21.3807 8.16477 20.1989C8.51705 19.017 9.02841 18.0625 9.69886 17.3352C10.3693 16.608 11.1761 15.9489 12.1193 15.358C12.8239 14.9034 13.4545 14.4318 14.0114 13.9432C14.5682 13.4545 15.0114 12.9148 15.3409 12.3239C15.6705 11.7216 15.8352 11.0511 15.8352 10.3125C15.8352 9.52841 15.6477 8.84091 15.2727 8.25C14.8977 7.65909 14.392 7.20454 13.7557 6.88636C13.1307 6.56818 12.4375 6.40909 11.6761 6.40909C10.9375 6.40909 10.2386 6.57386 9.57955 6.90341C8.92045 7.22159 8.38068 7.69886 7.96023 8.33523C7.53977 8.96023 7.3125 9.73864 7.27841 10.6705H0.323864C0.380682 8.39773 0.926136 6.52273 1.96023 5.04545C2.99432 3.55682 4.36364 2.44886 6.06818 1.72159C7.77273 0.982953 9.65341 0.613635 11.7102 0.613635C13.9716 0.613635 15.9716 0.988635 17.7102 1.73864C19.4489 2.47727 20.8125 3.55114 21.8011 4.96023C22.7898 6.36932 23.2841 8.06818 23.2841 10.0568C23.2841 11.3864 23.0625 12.5682 22.6193 13.6023C22.1875 14.625 21.5795 15.5341 20.7955 16.3295C20.0114 17.1136 19.0852 17.8239 18.017 18.4602C17.1193 18.9943 16.3807 19.5511 15.8011 20.1307C15.233 20.7102 14.8068 21.3807 14.5227 22.142C14.25 22.9034 14.108 23.8409 14.0966 24.9545V25.5341H7.63636ZM11.0114 36.4432C9.875 36.4432 8.90341 36.0455 8.09659 35.25C7.30114 34.4432 6.90909 33.4773 6.92045 32.3523C6.90909 31.2386 7.30114 30.2841 8.09659 29.4886C8.90341 28.6932 9.875 28.2955 11.0114 28.2955C12.0909 28.2955 13.0398 28.6932 13.858 29.4886C14.6761 30.2841 15.0909 31.2386 15.1023 32.3523C15.0909 33.1023 14.892 33.7898 14.5057 34.4148C14.1307 35.0284 13.6364 35.5227 13.0227 35.8977C12.4091 36.2614 11.7386 36.4432 11.0114 36.4432Z" fill="white"/>
</svg>
